<svg xmlns="http://www.w3.org/2000/svg" xmlns:xlink="http://www.w3.org/1999/xlink" xmlns:lucid="lucid" width="3666" height="1667"><g transform="translate(903.6666666666664 453.1333333333333)" lucid:page-tab-id="0_0"><path d="M-762.67-393.13c22.1 0 40 17.9 40 40s-17.9 40-40 40h-80c-22.1 0-40-17.9-40-40s17.9-40 40-40z" stroke="#e08fff" stroke-width="2" fill="#f4d9ff"/><use xlink:href="#a" transform="matrix(1,0,0,1,-877.6666666666664,-388.1333333333333) translate(51.574074074074076 39.65277777777778)"/><path d="M1474.65-429.4a7.5 7.5 0 0 1 9.37 0l90.63 72.52a4.8 4.8 0 0 1 0 7.5l-90.63 72.5a7.5 7.5 0 0 1-9.37 0l-90.63-72.5a4.8 4.8 0 0 1 0-7.5z" stroke="#6db1ff" stroke-width="2" fill="#edf5ff"/><use xlink:href="#b" transform="matrix(1,0,0,1,1384.3333333333335,-428.1333333333333) translate(33.18401234567901 64.65277777777777)"/><use xlink:href="#c" transform="matrix(1,0,0,1,1384.3333333333335,-428.1333333333333) translate(81.27043209876543 64.65277777777777)"/><use xlink:href="#d" transform="matrix(1,0,0,1,1384.3333333333335,-428.1333333333333) translate(130.9617901234568 64.65277777777777)"/><use xlink:href="#e" transform="matrix(1,0,0,1,1384.3333333333335,-428.1333333333333) translate(33.36919753086421 91.31944444444446)"/><use xlink:href="#f" transform="matrix(1,0,0,1,1384.3333333333335,-428.1333333333333) translate(82.62845679012347 91.31944444444446)"/><path d="M1874.65 828.95a7.5 7.5 0 0 1 9.37 0l90.63 72.5a4.8 4.8 0 0 1 0 7.5l-90.63 72.5a7.5 7.5 0 0 1-9.37 0l-90.63-72.5a4.8 4.8 0 0 1 0-7.5z" stroke="#6db1ff" stroke-width="2" fill="#edf5ff"/><use xlink:href="#g" transform="matrix(1,0,0,1,1784.3333333333335,830.1999999999999) translate(51.239567901234565 64.65277777777777)"/><use xlink:href="#h" transform="matrix(1,0,0,1,1784.3333333333335,830.1999999999999) translate(95.68401234567901 64.65277777777777)"/><use xlink:href="#i" transform="matrix(1,0,0,1,1784.3333333333335,830.1999999999999) translate(51.82598765432098 91.31944444444446)"/><path d="M2179.33 856.87a6 6 0 0 1 6-6h190a6 6 0 0 1 6 6v150a6 6 0 0 1-6 6h-190a6 6 0 0 1-6-6z" stroke="#ff80df" stroke-width="2" fill="#fff0fb"/><use xlink:href="#j" transform="matrix(1,0,0,1,2191.3333333333335,862.8666666666667) translate(47.67283950617284 22.09027777777778)"/><use xlink:href="#k" transform="matrix(1,0,0,1,2191.3333333333335,862.8666666666667) translate(42.17901234567901 48.75694444444444)"/><use xlink:href="#l" transform="matrix(1,0,0,1,2191.3333333333335,862.8666666666667) translate(13.81481481481481 75.42361111111111)"/><use xlink:href="#m" transform="matrix(1,0,0,1,2191.3333333333335,862.8666666666667) translate(122.20987654320987 75.42361111111111)"/><use xlink:href="#e" transform="matrix(1,0,0,1,2191.3333333333335,862.8666666666667) translate(18.691358024691354 102.09027777777777)"/><use xlink:href="#n" transform="matrix(1,0,0,1,2191.3333333333335,862.8666666666667) translate(67.9506172839506 102.09027777777777)"/><use xlink:href="#o" transform="matrix(1,0,0,1,2191.3333333333335,862.8666666666667) translate(134.61728395061726 102.09027777777777)"/><use xlink:href="#p" transform="matrix(1,0,0,1,2191.3333333333335,862.8666666666667) translate(46.43827160493827 128.75694444444446)"/><path d="M-427.35 647.95a7.5 7.5 0 0 1 9.37 0l90.63 72.5a4.8 4.8 0 0 1 0 7.5l-90.63 72.5a7.5 7.5 0 0 1-9.37 0l-90.63-72.5a4.8 4.8 0 0 1 0-7.5z" stroke="#6db1ff" stroke-width="2" fill="#edf5ff"/><use xlink:href="#q" transform="matrix(1,0,0,1,-517.6666666666664,649.2000000000002) translate(5 52.77777777777778)"/><use xlink:href="#r" transform="matrix(1,0,0,1,-517.6666666666664,649.2000000000002) translate(28.456790123456788 52.77777777777778)"/><use xlink:href="#s" transform="matrix(1,0,0,1,-517.6666666666664,649.2000000000002) translate(113.51851851851852 52.77777777777778)"/><use xlink:href="#t" transform="matrix(1,0,0,1,-517.6666666666664,649.2000000000002) translate(37.654320987654316 79.44444444444446)"/><use xlink:href="#u" transform="matrix(1,0,0,1,-517.6666666666664,649.2000000000002) translate(61.04938271604938 79.44444444444446)"/><use xlink:href="#v" transform="matrix(1,0,0,1,-517.6666666666664,649.2000000000002) translate(98.08641975308642 79.44444444444446)"/><use xlink:href="#w" transform="matrix(1,0,0,1,-517.6666666666664,649.2000000000002) translate(46.94444444444444 106.11111111111111)"/><path d="M672.65 855.6a7.5 7.5 0 0 1 9.37 0l90.63 72.52a4.8 4.8 0 0 1 0 7.5l-90.63 72.5a7.5 7.5 0 0 1-9.37 0l-90.63-72.5a4.8 4.8 0 0 1 0-7.5z" stroke="#6db1ff" stroke-width="2" fill="#edf5ff"/><use xlink:href="#x" transform="matrix(1,0,0,1,582.3333333333336,856.8666666666667) translate(3.209876543209873 52.77777777777778)"/><use xlink:href="#y" transform="matrix(1,0,0,1,582.3333333333336,856.8666666666667) translate(48.76543209876543 52.77777777777778)"/><use xlink:href="#z" transform="matrix(1,0,0,1,582.3333333333336,856.8666666666667) translate(132.53086419753086 52.77777777777778)"/><use xlink:href="#r" transform="matrix(1,0,0,1,582.3333333333336,856.8666666666667) translate(19.135802469135797 79.44444444444446)"/><use xlink:href="#A" transform="matrix(1,0,0,1,582.3333333333336,856.8666666666667) translate(104.19753086419753 79.44444444444446)"/><use xlink:href="#m" transform="matrix(1,0,0,1,582.3333333333336,856.8666666666667) translate(128.88888888888889 79.44444444444446)"/><use xlink:href="#B" transform="matrix(1,0,0,1,582.3333333333336,856.8666666666667) translate(21.01851851851852 106.11111111111111)"/><use xlink:href="#C" transform="matrix(1,0,0,1,582.3333333333336,856.8666666666667) translate(125.89506172839506 106.11111111111111)"/><path d="M-27.35 494.6a7.5 7.5 0 0 1 9.37 0l90.63 72.52a4.8 4.8 0 0 1 0 7.5l-90.63 72.5a7.5 7.5 0 0 1-9.37 0l-90.63-72.5a4.8 4.8 0 0 1 0-7.5z" stroke="#6db1ff" stroke-width="2" fill="#edf5ff"/><use xlink:href="#D" transform="matrix(1,0,0,1,-117.6666666666664,495.8666666666667) translate(3.73456790123457 52.77777777777778)"/><use xlink:href="#E" transform="matrix(1,0,0,1,-117.6666666666664,495.8666666666667) translate(44.41358024691358 52.77777777777778)"/><use xlink:href="#F" transform="matrix(1,0,0,1,-117.6666666666664,495.8666666666667) translate(101.14197530864197 52.77777777777778)"/><use xlink:href="#t" transform="matrix(1,0,0,1,-117.6666666666664,495.8666666666667) translate(22.839506172839506 79.44444444444446)"/><use xlink:href="#u" transform="matrix(1,0,0,1,-117.6666666666664,495.8666666666667) translate(46.23456790123457 79.44444444444446)"/><use xlink:href="#G" transform="matrix(1,0,0,1,-117.6666666666664,495.8666666666667) translate(83.27160493827161 79.44444444444446)"/><use xlink:href="#w" transform="matrix(1,0,0,1,-117.6666666666664,495.8666666666667) translate(46.94444444444444 106.11111111111111)"/><path d="M672.65-47.38a7.5 7.5 0 0 1 9.37 0l90.63 72.5a4.8 4.8 0 0 1 0 7.5l-90.63 72.5a7.5 7.5 0 0 1-9.37 0l-90.63-72.5a4.8 4.8 0 0 1 0-7.5z" stroke="#6db1ff" stroke-width="2" fill="#edf5ff"/><use xlink:href="#H" transform="matrix(1,0,0,1,582.3333333333336,-46.133333333333326) translate(8.73456790123457 52.77777777777778)"/><use xlink:href="#I" transform="matrix(1,0,0,1,582.3333333333336,-46.133333333333326) translate(97.5 52.77777777777778)"/><use xlink:href="#J" transform="matrix(1,0,0,1,582.3333333333336,-46.133333333333326) translate(9.84567901234567 79.44444444444446)"/><use xlink:href="#K" transform="matrix(1,0,0,1,582.3333333333336,-46.133333333333326) translate(53.05555555555555 79.44444444444446)"/><use xlink:href="#A" transform="matrix(1,0,0,1,582.3333333333336,-46.133333333333326) translate(113.48765432098764 79.44444444444446)"/><use xlink:href="#m" transform="matrix(1,0,0,1,582.3333333333336,-46.133333333333326) translate(138.179012345679 79.44444444444446)"/><use xlink:href="#B" transform="matrix(1,0,0,1,582.3333333333336,-46.133333333333326) translate(21.01851851851852 106.11111111111111)"/><use xlink:href="#C" transform="matrix(1,0,0,1,582.3333333333336,-46.133333333333326) translate(125.89506172839506 106.11111111111111)"/><path d="M977.33 522.53a6 6 0 0 1 6-6h190a6 6 0 0 1 6 6v150a6 6 0 0 1-6 6h-190a6 6 0 0 1-6-6z" stroke="#ff80df" stroke-width="2" fill="#fff0fb"/><use xlink:href="#L" transform="matrix(1,0,0,1,989.3333333333336,528.5333333333333) translate(16.839506172839506 60.90277777777778)"/><use xlink:href="#M" transform="matrix(1,0,0,1,989.3333333333336,528.5333333333333) translate(67.45679012345678 60.90277777777778)"/><use xlink:href="#N" transform="matrix(1,0,0,1,989.3333333333336,528.5333333333333) translate(92.14814814814815 60.90277777777778)"/><use xlink:href="#C" transform="matrix(1,0,0,1,989.3333333333336,528.5333333333333) translate(67.45679012345678 87.56944444444446)"/><path d="M-27.35 855.6a7.5 7.5 0 0 1 9.37 0l90.63 72.52a4.8 4.8 0 0 1 0 7.5l-90.63 72.5a7.5 7.5 0 0 1-9.37 0l-90.63-72.5a4.8 4.8 0 0 1 0-7.5z" stroke="#6db1ff" stroke-width="2" fill="#edf5ff"/><use xlink:href="#O" transform="matrix(1,0,0,1,-117.6666666666664,856.8666666666667) translate(32.74691358024691 52.77777777777778)"/><use xlink:href="#P" transform="matrix(1,0,0,1,-117.6666666666664,856.8666666666667) translate(78.3641975308642 52.77777777777778)"/><use xlink:href="#Q" transform="matrix(1,0,0,1,-117.6666666666664,856.8666666666667) translate(2.4691358024691397 79.44444444444446)"/><use xlink:href="#R" transform="matrix(1,0,0,1,-117.6666666666664,856.8666666666667) translate(88.82716049382717 79.44444444444446)"/><use xlink:href="#S" transform="matrix(1,0,0,1,-117.6666666666664,856.8666666666667) translate(67.28395061728395 106.11111111111111)"/><path d="M672.65 312.6a7.5 7.5 0 0 1 9.37 0l90.63 72.52a4.8 4.8 0 0 1 0 7.5l-90.63 72.5a7.5 7.5 0 0 1-9.37 0l-90.63-72.5a4.8 4.8 0 0 1 0-7.5z" stroke="#6db1ff" stroke-width="2" fill="#edf5ff"/><use xlink:href="#T" transform="matrix(1,0,0,1,582.3333333333336,313.8666666666667) translate(67.84450617283952 50.59027777777778)"/><use xlink:href="#U" transform="matrix(1,0,0,1,582.3333333333336,313.8666666666667) translate(47.535864197530856 77.25694444444446)"/><use xlink:href="#V" transform="matrix(1,0,0,1,582.3333333333336,313.8666666666667) translate(98.09141975308643 77.25694444444446)"/><use xlink:href="#W" transform="matrix(1,0,0,1,582.3333333333336,313.8666666666667) translate(130.12845679012347 77.25694444444446)"/><use xlink:href="#X" transform="matrix(1,0,0,1,582.3333333333336,313.8666666666667) translate(53.64697530864198 103.92361111111111)"/><path d="M977.33 7.53a6 6 0 0 1 6-6h190a6 6 0 0 1 6 6v150a6 6 0 0 1-6 6h-190a6 6 0 0 1-6-6z" stroke="#ff80df" stroke-width="2" fill="#fff0fb"/><use xlink:href="#Y" transform="matrix(1,0,0,1,989.3333333333336,13.53333333333319) translate(0.8518518518518476 60.90277777777778)"/><use xlink:href="#U" transform="matrix(1,0,0,1,989.3333333333336,13.53333333333319) translate(63.691358024691354 60.90277777777778)"/><use xlink:href="#Z" transform="matrix(1,0,0,1,989.3333333333336,13.53333333333319) translate(114.24691358024691 60.90277777777778)"/><use xlink:href="#W" transform="matrix(1,0,0,1,989.3333333333336,13.53333333333319) translate(164.80246913580248 60.90277777777778)"/><use xlink:href="#X" transform="matrix(1,0,0,1,989.3333333333336,13.53333333333319) translate(47.641975308641975 87.56944444444446)"/><path d="M-27.35-74.05a7.5 7.5 0 0 1 9.37 0l90.63 72.5a4.8 4.8 0 0 1 0 7.5l-90.63 72.5a7.5 7.5 0 0 1-9.37 0l-90.63-72.5a4.8 4.8 0 0 1 0-7.5z" stroke="#6db1ff" stroke-width="2" fill="#edf5ff"/><use xlink:href="#O" transform="matrix(1,0,0,1,-117.6666666666664,-72.80000000000007) translate(32.74691358024691 52.77777777777778)"/><use xlink:href="#P" transform="matrix(1,0,0,1,-117.6666666666664,-72.80000000000007) translate(78.3641975308642 52.77777777777778)"/><use xlink:href="#Q" transform="matrix(1,0,0,1,-117.6666666666664,-72.80000000000007) translate(2.4691358024691397 79.44444444444446)"/><use xlink:href="#R" transform="matrix(1,0,0,1,-117.6666666666664,-72.80000000000007) translate(88.82716049382717 79.44444444444446)"/><use xlink:href="#S" transform="matrix(1,0,0,1,-117.6666666666664,-72.80000000000007) translate(67.28395061728395 106.11111111111111)"/><path d="M2701.33-393.13c22.1 0 40 17.9 40 40s-17.9 40-40 40h-80c-22.1 0-40-17.9-40-40s17.9-40 40-40z" stroke="#e08fff" stroke-width="2" fill="#f4d9ff"/><use xlink:href="#aa" transform="matrix(1,0,0,1,2586.3333333333335,-388.1333333333333) translate(55.24691358024691 39.65277777777778)"/><path d="M-721.17-353.13h2086" stroke="#3a414a" fill="none"/><path d="M-721.15-352.66h-.54l.03-.46v-.5h.52z" stroke="#3a414a" stroke-width=".05" fill="#3a414a"/><path d="M1379.6-353.13l-14.27 4.63v-9.27z" stroke="#3a414a" fill="#3a414a"/><path d="M1479.8 899.18l.08.88.2.85.33.8.46.75.57.66.66.57.73.45.8.33.84.2.88.08h279.48v.94h-279.5l-1-.07-1-.24-.94-.4-.87-.52-.78-.66-.66-.77-.54-.86-.4-.94-.22-1-.08-.98V857.9h.95zm0-62.63h-.94v-1110.3h.95z" stroke="#3a414a" stroke-width=".05" fill="#3a414a"/><path d="M1479.33-274.24l.48-.03v.55h-.94v-.55z" fill="#3a414a"/><path stroke="#3a414a" stroke-width=".05" fill="#3a414a"/><path d="M1779.6 905.2l-14.27 4.63v-9.26z" fill="#3a414a"/><path d="M1781.13 905.2l-16.28 5.3v-10.6zm-15.33 3.98l12.26-3.98-12.26-3.98z" stroke="#3a414a" stroke-width=".05" fill="#3a414a"/><path d="M1956.08 926.86l.2.82.32.78.44.72.54.64.64.54.72.44.78.33.82.2.86.06h87.05v.94h-87.1l-.96-.08-.97-.23-.92-.38-.84-.5-.75-.66-.63-.76-.52-.85-.38-.93-.23-.96-.08-.94.95-.08zm205.87 4.53v.94h-82.88v-.95z" stroke="#008a0e" stroke-width=".05" fill="#008a0e"/><path d="M1956 926.03h-.94v-.13l.95-.76z" fill="#008a0e"/><path stroke="#008a0e" stroke-width=".05" fill="#008a0e"/><path d="M2176.72 931.87l-14.27 4.63v-9.27z" fill="#008a0e"/><path d="M2178.25 931.87l-16.28 5.3v-10.6zm-15.32 3.98l12.25-3.98-12.25-4z" stroke="#008a0e" stroke-width=".05" fill="#008a0e"/><use xlink:href="#ab" transform="matrix(1,0,0,1,2048.4516815352786,921.2) translate(0 14.222222222222223)"/><path d="M1679.8 899.22l-.07 1-.24.98-.4.94-.53.87-.66.78-.76.66-.87.53-.93.4-1 .23-1 .07h-4.83v-.94h4.82l.88-.07.84-.2.8-.34.74-.45.66-.56.56-.65.46-.74.33-.8.2-.84.06-.88v-5.07h.95zm-16.1 6.45h-9.65v-.94h9.64zm-14.47 0h-9.64v-.94h9.63zm-14.46 0h-9.64v-.94h9.64zm-14.46 0h-9.63v-.94h9.64zm-14.45 0h-9.64v-.94h9.65zm-14.46 0h-9.66v-.94h9.64zm-14.48 0h-9.64v-.94h9.64zm-14.46 0h-9.64v-.94h9.64zm-14.46 0h-9.64v-.94h9.64zm-14.46 0h-9.64v-.94h9.64zm-14.46 0h-9.64v-.94h9.64zm-14.46 0h-9.65v-.94h9.64zm-24.8-6.5l.06.9.2.84.33.8.46.75.57.66.66.57.73.45.8.33.84.2.88.08h4.8v.94h-4.84l-.98-.07-1-.24-.93-.4-.87-.52-.78-.66-.66-.77-.54-.86-.4-.94-.22-1-.08-.98v-5.03h.95zm0-10h-.96v-10h.95zm200-.15h-.96v-10.18h.95zm283.92-7.6H1959l-.5.03-.44.1-.43.2-.4.23-.35.3-.3.36-.25.4-.17.42-.1.46-.05.5-.94-.08.05-.57.15-.6.23-.57.33-.52.4-.47.47-.4.53-.3.56-.25.6-.14.6-.03h4.78zm14.3 0h-9.54v-.95h9.53zm14.3 0h-9.54v-.95h9.53zm14.28 0h-9.53v-.95h9.52zm14.3 0h-9.53v-.95h9.52zm14.3 0h-9.54v-.95h9.53zm14.3 0h-9.54v-.95h9.53zm14.28 0h-9.53v-.95h9.53zm16-6.46l-.07 1-.24.98-.4.94-.53.87-.66.77-.76.66-.87.53-.93.4-1 .24-1 .07h-4.77v-.93h4.74l.9-.08.84-.2.8-.34.74-.45.66-.55.56-.66.45-.75.34-.8.2-.85.06-.88v-4.77h.95zm-600-.8h-.94v-10.02h.95zm200-.4h-.94v-10.2h.95zm400-8.4h-.94v-9.6h.95zm-600-6.23h-.94v-1.24h.95zm200-.66h-.94V848.3h.95zm400-7.5h-.94v-9.57h.95zm-400-7.77h-.94v-10.18h.95zm400-6.6h-.94v-9.57h.95zm-600-.05h-.94v-2.46h.95zm0-7.47h-.94v-10.02h.95zm200-1.15h-.94v-10.18h.95zm400-5.7h-.94v-9.58h.95zm-600-8.18h-.94v-10.02h.95zm200-1.4h-.94v-10.18h.95zm400-4.8h-.94v-9.57h.95zm-600-8.83h-.94v-10h.95zm200-1.64h-.94V787.2h.95zm400-3.9h-.94v-9.58h.95zm-600-9.48h-.94v-10.02h.95zm200-1.9h-.94v-10.17h.95zm400-3h-.94v-9.57h.95zm-600-10.13h-.94v-10.02h.95zm200-2.13h-.94v-10.2h.95zm400-2.1h-.94v-9.58h.95zm-600-10.8h-.94v-10.02h.95zm200-2.38h-.94v-10.18h.95zm400-1.2h-.94v-9.58h.95zm-600-11.44h-.94V728.9h.95zm210.5-13.25h-4.95l-.88.07-.84.2-.8.34-.74.45-.67.56-.57.65-.45.74-.32.8-.2.84-.07.88v5.07h-.94v-5.12l.08-1 .23-.98.4-.94.52-.87.65-.78.78-.66.86-.53.93-.4 1-.23 1-.07h4.98zm384.05-.87l1 .24.92.4.87.52.77.66.67.77.53.86.4.94.23 1 .08.98v4.8h-.94v-4.76l-.07-.88-.2-.85-.34-.8-.46-.75-.56-.66-.66-.57-.74-.45-.8-.33-.84-.2-.88-.08h-4.96v-.94h5zm-10.96.88h-9.96v-.95h9.95zm-14.94 0h-9.95v-.95h9.96zm-14.92 0h-9.95v-.95h9.94zm-14.92 0h-9.95v-.95h9.94zm-14.93 0h-9.96v-.95h9.95zm-14.93 0h-9.95v-.95h9.95zm-14.92 0h-9.95v-.95h9.95zm-14.93 0h-9.95v-.95h9.95zm-14.92 0h-9.95v-.95h9.95zm-14.92 0h-9.95v-.95h9.95zm-14.93 0h-9.95v-.95h9.95zm-14.92 0h-9.95v-.95h9.95zm-14.92 0h-9.94v-.95h9.95zm-14.9 0h-9.96v-.95h9.94zm-14.94 0h-9.95v-.95h9.96zm-14.92 0h-9.95v-.95h9.94zm-14.92 0h-9.95v-.95h9.94zm-14.93 0h-9.96v-.95h9.95zm-14.93 0h-9.95v-.95h9.95zm-14.92 0h-9.95v-.95h9.95zm-14.93 0h-9.95v-.95h9.95zm-14.92 0h-9.95v-.95h9.95zm-14.92 0h-9.95v-.95h9.95zm-14.93 0h-9.95v-.95h9.95zm-14.92 0h-9.95v-.95h9.95zm-225.42-1.8h-.94v-10h.95zm0-15.02h-.94v-10h.95zm0-15.02h-.94v-10.02h.95zm0-15.03h-.94v-10h.95zm0-15.02h-.94v-10h.95zm0-15.02h-.94v-10.02h.95zm0-15.03h-.94V623.7h.95zm0-15.03h-.94v-10.02h.95zm0-15.02h-.94v-10.02h.95zm0-15.03h-.94v-10.02h.95zm0-15.03h-.94v-10h.95zm0-15.02h-.94v-10.02h.95zm0-15.03h-.94v-10.02h.95zm0-15.03h-.94v-10h.95zm0-15.02h-.94V503.5h.95zm0-15.03h-.94v-10.03h.95zm0-15.04h-.94v-10h.95zm0-15.02h-.94v-10.02h.95zm0-15.03h-.94v-10h.95zm0-15.02h-.94v-10h.95zm0-15.02h-.94v-10.02h.95zm0-15.03h-.94V398.3h.95zm0-15.03h-.94v-10h.95zm0-15.02h-.94v-10.02h.95zm0-15.03h-.94v-10.02h.95zm0-15.03h-.94V338.2h.95zm0-15.02h-.94v-10.02h.95zm0-15.03h-.94v-10.02h.95zm0-15.03h-.94v-10h.95zm0-15.02h-.94V278.1h.95zm0-15.03h-.94v-10.03h.95zm0-15.04h-.94v-10.02h.95zm0-15.02h-.94v-10.02h.95zm0-15.03h-.94v-10h.95zm0-15.02h-.94v-10h.95zm0-15.02h-.94v-10.02h.95zm0-15.03h-.94V172.9h.95zm0-15.03h-.94v-10.02h.95zm0-15.02h-.94v-10.02h.95zm0-15.03h-.94v-10.02h.95zm0-15.03h-.94v-10h.95zm0-15.02h-.94V97.78h.95zm0-15.03h-.94V82.75h.95zm0-15.03h-.94V67.72h.95zm0-15.02h-.94V52.7h.95zm0-15.03h-.94V37.66h.95zm0-15.04h-.94v-10h.95zm0-15.02h-.94V7.62h.95zm0-15.03h-.94v-10h.95zm0-15.02h-.94v-10h.95zm0-15.02h-.94v-10.02h.95zm0-15.03h-.94V-52.5h.95zm0-15.03h-.94v-10h.95zm0-15.02h-.94v-10.02h.95zm0-15.03h-.94v-10.02h.95zm0-15.03h-.94v-10h.95zm0-15.02h-.94v-10.02h.95zm0-15.03h-.94v-10.02h.95zm0-15.03h-.94v-10h.95zm0-15.02h-.94v-10.02h.95zm0-15.03h-.94v-10.03h.95zm0-15.04h-.94v-10h.95zm0-15.02h-.94v-10.02h.95zm0-15.03h-.94v-10h.95zm0-15.02h-.94v-10h.95zm0-15.02h-.94v-5h.95z" stroke="#e81313" stroke-width=".05" fill="#e81313"/><path d="M1956 885.26l-.94-.76v-.13h.95z" fill="#e81313"/><path stroke="#e81313" stroke-width=".05" fill="#e81313"/><path d="M1483.97-258.35h-9.27l4.63-14.27z" fill="#e81313"/><path d="M1484.62-257.88h-10.58l5.3-16.27zm-9.27-.95h7.97l-4-12.25z" stroke="#e81313" stroke-width=".05" fill="#e81313"/><use xlink:href="#ac" transform="matrix(1,0,0,1,1467.530864197531,836.5550948861998) translate(0 14.222222222222223)"/><path d="M-537.17 724.67h-79.48l-.88.07-.84.2-.8.34-.74.45-.67.56-.56.65-.46.74-.32.8-.2.84-.07.88v475.63l.08.88.2.84.33.8.47.74.56.67.66.57.73.45.8.32.84.2.88.07h3091.97l.88-.08.84-.2.8-.33.74-.46.66-.57.56-.66.45-.73.34-.8.2-.84.06-.88V937.9l-.07-.9-.2-.84-.34-.8-.46-.74-.56-.66-.66-.56-.74-.45-.8-.34-.84-.2-.88-.06h-92.5v-.95h92.53l1 .07 1 .24.92.4.87.53.77.66.67.76.53.87.4.94.23.98.08 1v268.03l-.07 1-.24 1-.4.93-.53.87-.66.78-.76.66-.87.54-.93.4-1 .22-1 .08H-616.68l-.98-.08-1-.23-.93-.4-.87-.52-.78-.65-.66-.78-.54-.86-.4-.93-.22-1-.08-.98V730.16l.08-1 .23-.98.4-.94.52-.87.65-.78.78-.66.86-.53.93-.4 1-.23 1-.07h79.5z" stroke="#3a414a" stroke-width=".05" fill="#3a414a"/><path d="M2382.85 932.34h-.52v-.95h.52z" fill="#3a414a"/><path stroke="#3a414a" stroke-width=".05" fill="#3a414a"/><path d="M-522.4 724.2l-14.27 4.63v-9.26z" fill="#3a414a"/><path d="M-520.87 724.2l-16.28 5.3v-10.6zm-15.33 3.98l12.26-3.98-12.26-3.98z" stroke="#3a414a" stroke-width=".05" fill="#3a414a"/><path d="M471.35 748l1 .07.98.24.94.4.87.52.77.67.67.76.53.87.4.93.23 1 .08 1v147.12l.08.9.2.83.33.8.47.75.56.66.66.57.73.45.8.34.84.2.88.07H588.7v.95H483.3l-.98-.08-1-.24-.93-.4-.87-.52-.78-.66-.66-.77-.54-.86-.4-.94-.22-1-.08-.98V754.48l-.07-.88-.2-.84-.35-.8-.45-.74-.56-.66-.66-.56-.74-.46-.8-.33-.84-.2-.88-.06h-249.1V748zm-817.2-2.06l.18.43.25.4.3.35.35.3.4.25.43.17.45.1.5.05h534.6v.94h-534.64l-.6-.05-.6-.15-.56-.24-.53-.3-.46-.4-.4-.47-.3-.53-.25-.57-.14-.6-.04-.57.95-.08.05.5z" stroke="#008a0e" stroke-width=".05" fill="#008a0e"/><path d="M-346 745.03h-.94v-.13l.95-.76z" fill="#008a0e"/><path stroke="#008a0e" stroke-width=".05" fill="#008a0e"/><path d="M599.6 911.06l-15 .1 2.8-8.83z" fill="#008a0e"/><path d="M601.06 911.52l-17.12.12 3.2-10.08zm-15.82-.84l12.88-.1-10.47-7.5z" stroke="#008a0e" stroke-width=".05" fill="#008a0e"/><use xlink:href="#ab" transform="matrix(1,0,0,1,191.5929618470241,737.7983961776675) translate(0 14.222222222222223)"/><path d="M-338.4 700.55h-4.74l-.46.04-.43.1-.4.16-.4.23-.33.28-.3.34-.22.38-.17.4-.1.44-.04.48-.94-.08.04-.55.14-.6.23-.54.3-.5.4-.45.45-.38.5-.3.55-.24.58-.14.57-.04h4.8zm14.32 0h-9.54v-.95h9.54zm14.3 0h-9.53v-.95h9.53zm14.33 0H-305v-.95h9.55zm14.3 0h-9.53v-.95h9.54zm14.32 0h-9.54v-.95h9.54zm14.3 0h-9.53v-.95h9.54zm14.32 0h-9.55v-.95h9.54zm16-6.46l-.07 1-.24.98-.4.93-.53.88-.66.77-.76.66-.87.54-.94.4-.98.23-1 .08h-4.8v-.95h4.76l.9-.07.84-.2.8-.34.74-.46.66-.56.56-.66.45-.74.34-.8.2-.84.06-.9v-4.85h.95zm0-9.8h-.94v-9.76h.95zm0-14.64h-.94v-9.77h.95zm0-32h-.94v-7.07h.95zm0-11.96h-.94v-9.76h.95zm0-14.65h-.94v-9.76h.95zm0-14.65h-.94v-9.77h.95zm10.83-25.06h-5.28l-.88.07-.84.2-.8.35-.74.45-.67.56-.56.66-.46.74-.32.8-.2.84-.07.88v4.87h-.94v-4.9l.08-1 .23-1 .4-.92.52-.87.65-.77.78-.67.86-.53.93-.4 1-.23.98-.08h5.33zm15.9 0h-10.6v-.95h10.6zm15.9 0h-10.6v-.95h10.6zm15.9 0h-10.6v-.95h10.6zm15.9 0h-10.6v-.95h10.6zm10.6 0h-5.3v-.95h5.3z" stroke="#e81313" stroke-width=".05" fill="#e81313"/><path d="M-346 704.26l-.94-.76v-.13h.95z" fill="#e81313"/><path stroke="#e81313" stroke-width=".05" fill="#e81313"/><path d="M-122.4 570.87l-14.27 4.63v-9.27z" fill="#e81313"/><path d="M-120.87 570.87l-16.28 5.3v-10.6zm-15.33 3.98l12.26-3.98-12.26-4z" stroke="#e81313" stroke-width=".05" fill="#e81313"/><use xlink:href="#ac" transform="matrix(1,0,0,1,-234.46913580246888,637.6664284494979) translate(0 14.222222222222223)"/><path d="M277.8 538.95l-.07 1-.24.98-.4.94-.53.87-.66.77-.76.67-.87.53-.94.4-.98.23-1 .07H58.67l-.75.06-.7.17-.68.28-.62.4-.55.47-.47.55-.38.62-.28.67-.17.72-.06.76-.94-.07.07-.83.2-.85.34-.8.46-.76.57-.67.66-.58.75-.46.82-.33.86-.2.85-.07h212.7l.87-.08.84-.2.8-.33.74-.45.66-.56.56-.66.45-.74.34-.8.2-.85.06-.9V260.54h.95zM590.37 55.28h-307l-.9.07-.83.2-.8.33-.74.45-.67.57-.56.66-.46.74-.32.8-.2.84-.07.88V239.2h-.94V60.8l.08-1 .23-1 .4-.94.52-.86.65-.78.78-.66.86-.53.93-.4 1-.22 1-.07h307.04z" stroke="#008a0e" stroke-width=".05" fill="#008a0e"/><path d="M54 550.93l-.94-.76v-.14H54z" fill="#008a0e"/><path stroke="#008a0e" stroke-width=".05" fill="#008a0e"/><path d="M589.2 60.64l-4.3-8.22 14.8-2.48z" fill="#008a0e"/><path d="M589.08 61.44l-4.9-9.38 16.88-2.84zm-3.45-8.66l3.68 7.06 9.04-9.2z" stroke="#008a0e" stroke-width=".05" fill="#008a0e"/><use xlink:href="#ab" transform="matrix(1,0,0,1,262.02469135802494,239.20000000000007) translate(0 14.222222222222223)"/><path d="M54.08 592.53l.2.82.32.77.44.72.54.64.64.55.72.44.78.32.82.2.86.06h4.98v.95h-5.02l-.97-.07-.97-.23-.92-.38-.84-.52-.75-.64-.63-.76-.52-.84-.38-.92-.23-.96-.08-.96.95-.07zm25.3 5.48h-10v-.94h10zm15.02 0h-10v-.94h10zm15 0h-10v-.94h10zm15.02 0h-10v-.94h10zm15 0h-10v-.94h10zm15.02 0h-10v-.94h10zm15 0h-10v-.94h10zm15.02 0h-10v-.94h10zm15 0h-10v-.94h10zm15.02 0h-10v-.94h10zm15 0h-10v-.94h10zm15.02 0h-10v-.94h10zm15 0h-10v-.94h10zm15.02 0h-10v-.94h10zm15 0h-10v-.94h10zm15.02 0h-10v-.94h10zm15 0h-10v-.94h10zm15 0h-10v-.94h10zm15.02 0h-10v-.94h10zm15 0h-10v-.94h10zm15.02 0h-10v-.94h10zm15 0h-10v-.94h10zm15.02 0h-10v-.94h10zm15 0h-10v-.94h10zm15.02 0h-10v-.94h10zm15 0h-10v-.94h10zm15.02 0h-10v-.94h10zm15 0h-10v-.94h10zm15.02 0h-10v-.94h10zm45.03 0h-10.02v-.94h10zm15 0h-10v-.94h10zm15 0h-10v-.94h10zm15.02 0h-10v-.94h10zm15 0h-10v-.94h10zm15 0h-10v-.94h10zm15.02 0h-10v-.94h10zm15 0h-10v-.94h10zm15.02 0h-10v-.94h10zm15 0h-10v-.94h10zm15.02 0h-10v-.94h10zm15 0h-10v-.94h10zm15.02 0h-10v-.94h10zm15 0h-10v-.94h10zm15.02 0h-10v-.94h10zm15 0h-10v-.94h10zm15.02 0h-10v-.94h10zm15 0h-10v-.94h10zm15.02 0h-10v-.94h10zm15 0h-10v-.94h10zm15.02 0h-10v-.94h10zm15 0h-10v-.94h10zm15.02 0h-10v-.94h10zm15 0h-10v-.94h10zm15 0h-10v-.94h10zm15.02 0h-10v-.94h10zm15 0h-10v-.94h10zm15.02 0h-10v-.94h10zm10 0h-5v-.94h5zm-430.26 0h-6.12v-.94h6.12z" stroke="#e81313" stroke-width=".05" fill="#e81313"/><path d="M54 591.7h-.94v-.13l.95-.76z" fill="#e81313"/><path stroke="#e81313" stroke-width=".05" fill="#e81313"/><path d="M974.7 597.53l-14.25 4.64v-9.27z" fill="#e81313"/><path d="M976.25 597.53l-16.27 5.3v-10.6zm-15.33 4l12.26-4-12.25-3.98z" stroke="#e81313" stroke-width=".05" fill="#e81313"/><use xlink:href="#ac" transform="matrix(1,0,0,1,499.9578543747852,586.8666666666666) translate(0 14.222222222222223)"/><path d="M-137.17 932.34h-79.48l-.88.07-.84.2-.8.35-.74.45-.67.56-.56.66-.46.74-.32.8-.2.84-.07.88v167.97l.08.88.2.84.33.8.47.74.56.67.66.57.73.45.8.32.84.2.88.07H871.3l.9-.08.84-.2.8-.33.74-.46.66-.57.56-.66.46-.73.33-.8.2-.84.06-.88v-143.7l-.07-.9-.2-.83-.35-.8-.45-.74-.56-.66-.66-.56-.74-.45-.8-.33-.84-.2-.88-.07H756.95l-.6-.05-.6-.14-.55-.22-.53-.32-.47-.4-.4-.47-.32-.53-.23-.57-.14-.6-.04-.58.95-.07.05.5.1.45.18.43.25.4.3.35.35.3.4.25.43.17.45.1.5.05h114.35l1 .08 1 .24.92.4.87.52.77.65.67.77.53.87.4.92.23 1 .08 1v143.76l-.07 1-.24 1-.4.93-.53.87-.66.78-.76.66-.87.54-.93.4-1 .22-1 .08H-216.68l-.98-.08-1-.23-.93-.4-.87-.52-.78-.65-.66-.78-.54-.86-.4-.93-.22-1-.08-.98V937.84l.08-1 .23-1 .4-.92.52-.87.65-.77.78-.67.86-.53.93-.4 1-.23.98-.08h79.53z" stroke="#3a414a" stroke-width=".05" fill="#3a414a"/><path d="M754 952.7h-.94v-.13l.95-.76z" fill="#3a414a"/><path stroke="#3a414a" stroke-width=".05" fill="#3a414a"/><path d="M-122.4 931.87l-14.27 4.63v-9.27z" fill="#3a414a"/><path d="M-120.87 931.87l-16.28 5.3v-10.6zm-15.33 3.98l12.26-3.98-12.26-4z" stroke="#3a414a" stroke-width=".05" fill="#3a414a"/><path d="M377.8 899.94l-.07 1-.24 1-.4.92-.53.87-.66.77-.76.66-.87.54-.94.38-.98.24-1 .08H58.67l-.74.06-.7.17-.68.28-.63.4-.55.46-.47.56-.38.62-.28.67-.17.72-.06.76-.94-.07.07-.83.2-.85.34-.82.46-.74.57-.67.66-.58.75-.46.83-.34.85-.2.86-.07h312.68l.88-.07.84-.2.8-.33.74-.46.66-.57.56-.66.45-.74.34-.8.2-.84.06-.9V721.04h.95zm212.57-484.66H383.35l-.88.07-.84.2-.8.34-.74.44-.67.56-.56.66-.46.74-.32.8-.2.84-.07.9V699.7h-.94V420.8l.08-1 .23-1 .4-.93.52-.87.65-.77.78-.66.86-.53.93-.4 1-.23 1-.07h207.04z" stroke="#008a0e" stroke-width=".05" fill="#008a0e"/><path d="M54 911.93l-.94-.76v-.14H54z" fill="#008a0e"/><path stroke="#008a0e" stroke-width=".05" fill="#008a0e"/><path d="M589.2 420.65l-4.3-8.22 14.8-2.5z" fill="#008a0e"/><path d="M589.08 421.45l-4.9-9.38 16.88-2.85zm-3.45-8.66l3.7 7.05 9-9.2z" stroke="#008a0e" stroke-width=".05" fill="#008a0e"/><use xlink:href="#ab" transform="matrix(1,0,0,1,362.02469135802494,699.6999999999999) translate(0 14.222222222222223)"/><path d="M54 986.17l.08.88.2.84.33.8.46.73.57.66.66.55.73.46.8.34.84.2.88.07h4.94v.96H59.5l-1-.08-1-.23-.93-.4-.87-.52-.78-.66-.66-.78-.54-.87-.4-.94-.22-1-.08-1v-5.6H54zm25.37 6.5h-9.92v-.96h9.92zm14.88 0h-9.92v-.96h9.92zm14.88 0H99.2v-.96h9.93zm14.87 0h-9.9v-.96h9.9zm14.88 0h-9.92v-.96h9.92zm14.88 0h-9.92v-.96h9.92zm14.88 0h-9.92v-.96h9.92zm14.88 0h-9.92v-.96h9.9zm14.87 0h-9.93v-.96h9.92zm14.87 0h-9.92v-.96h9.92zm14.88 0h-9.92v-.96h9.92zm14.88 0h-9.92v-.96h9.93zm14.87 0H248v-.96h9.9zm14.88 0h-9.92v-.96h9.92zm14.88 0h-9.92v-.96h9.92zm14.88 0h-9.92v-.96h9.92zm13 0h-8.04v-.96h8.03zm46.5 0h-9.9v-.96h9.9zm14.9 0H367v-.96h9.93zm14.86 0h-9.92v-.96h9.92zm14.88 0h-9.92v-.96h9.92zm14.88 0h-9.92v-.96h9.92zm14.88 0h-9.92v-.96h9.92zm14.88 0h-9.92v-.96h9.92zm14.87 0h-9.93v-.96h9.92zm14.87 0h-9.92v-.96h9.92zm14.88 0h-9.92v-.96h9.92zm14.88 0h-9.92v-.96h9.93zm14.87 0h-9.92v-.96h9.92zm14.88 0h-9.92v-.96h9.92zm14.88 0h-9.92v-.96h9.92zm14.88 0h-9.92v-.96h9.92zm14.87 0h-9.9v-.96h9.9zm16.4-6.46l-.07 1-.24 1-.4.93-.53.86-.66.77-.76.66-.87.53-.94.4-.98.22-1 .08h-4.98v-.95h4.94l.9-.06.84-.2.8-.33.74-.45.66-.56.56-.67.45-.74.34-.8.2-.85.06-.88v-5.85h.95zm-254.43 6.46h-8.03v-.95h8.03zM54 975.02h-.94v-11.17H54zm547.6-.58h-.94v-5.87h.95zM54 958.27h-.94v-5.58H54z" stroke="#e81313" stroke-width=".05" fill="#e81313"/><path d="M54 952.7h-.94v-.13l.95-.76z" fill="#e81313"/><path stroke="#e81313" stroke-width=".05" fill="#e81313"/><path d="M605.77 968.07h-9.27l4.63-14.27z" fill="#e81313"/><path d="M606.42 968.55h-10.58l5.3-16.28zm-9.27-.95h7.96l-3.97-12.26z" stroke="#e81313" stroke-width=".05" fill="#e81313"/><g><use xlink:href="#ac" transform="matrix(1,0,0,1,315.530804796567,981.5201506996008) translate(0 14.222222222222223)"/></g><path d="M753.53 368.05a3.94 3.94 0 0 1 3.94-3.94h113.86a6 6 0 0 0 6-6V115.8a6 6 0 0 1 6-6h76.62" stroke="#3a414a" fill="none"/><path d="M754 368.93l-.94-.76v-.14h.95z" stroke="#3a414a" stroke-width=".05" fill="#3a414a"/><path d="M974.7 109.8l-14.25 4.64v-9.27z" stroke="#3a414a" fill="#3a414a"/><path d="M1274.35 82.14l1 .23.92.4.87.52.77.65.67.78.53.86.4.93.23 1 .08.98V899.2l.08.88.2.85.33.8.46.75.57.66.66.57.73.45.8.33.84.2.88.08h187.97l.88-.07.84-.2.8-.34.74-.45.66-.56.56-.65.46-.74.33-.8.2-.84.06-.88v-41.3h.95v41.34l-.07 1-.24.98-.4.94-.53.87-.66.78-.76.66-.87.53-.93.4-1 .23-1 .07h-188.02l-1-.07-1-.24-.93-.4-.87-.52-.78-.66-.66-.77-.54-.86-.4-.94-.22-1-.08-.98V88.55l-.07-.88-.2-.84-.34-.8-.46-.74-.56-.67-.66-.56-.74-.46-.8-.32-.84-.2-.88-.07h-92.5v-.94h92.53zm205.46 754.4h-.94v-1094.4h.95z" stroke="#3a414a" stroke-width=".05" fill="#3a414a"/><path d="M1180.85 83h-.52v-.94h.52z" fill="#3a414a"/><path stroke="#3a414a" stroke-width=".05" fill="#3a414a"/><path d="M1483.97-258.35h-9.27l4.63-14.27z" fill="#3a414a"/><path d="M1484.62-257.88h-10.58l5.3-16.27zm-9.27-.95h7.97l-4-12.25zM872.35-252.53l1 .24.92.4.87.53.77.66.67.76.53.87.4.94.23.98.08 1V-1.88l-.07 1-.24.98-.4.94-.53.87-.66.78-.76.66-.87.53-.93.4-1 .23-1 .08H757.5l-.56.04-.53.13-.5.2-.46.3-.4.34-.37.4-.28.47-.22.5-.13.53-.04.58-.94-.07.05-.64.17-.68.27-.64.36-.6.45-.52.53-.45.6-.36.63-.26.7-.16.66-.05h113.86l.88-.07.84-.2.8-.34.74-.45.66-.56.56-.65.46-.74.33-.8.2-.83.06-.9v-244.2l-.07-.87-.2-.84-.35-.8-.45-.74-.56-.66-.66-.56-.74-.46-.8-.33-.84-.2-.88-.06H-216.65l-.88.07-.84.2-.8.34-.74.46-.67.56-.56.66-.46.74-.32.8-.2.84-.07.88V-3.8l.08.88.2.85.33.8.47.75.56.66.66.57.73.45.8.33.84.2.88.08h79.48v.94h-79.52l-.98-.07-1-.24-.93-.4-.87-.52-.78-.66-.66-.77-.54-.86-.4-.94-.22-1-.08-.98v-242.37l.08-1 .23-.98.4-.94.52-.87.65-.77.78-.67.86-.53.93-.4 1-.23.98-.08H871.37z" stroke="#3a414a" stroke-width=".05" fill="#3a414a"/><path d="M754 8.93l-.94-.76v-.14h.95z" fill="#3a414a"/><path stroke="#3a414a" stroke-width=".05" fill="#3a414a"/><path d="M-122.4 2.2l-14.27 4.63v-9.27z" fill="#3a414a"/><path d="M-120.87 2.2l-16.28 5.3V-3.1zm-15.33 3.98l12.26-3.98-12.26-3.98z" stroke="#3a414a" stroke-width=".05" fill="#3a414a"/><path d="M177.8 357.75l.08.9.2.83.33.8.47.74.56.66.66.56.73.45.8.33.84.2.88.07h406.17v.95h-406.2l-1-.08-1-.24-.93-.4-.87-.52-.78-.65-.66-.77-.54-.87-.4-.93-.22-.98-.08-1v-2.45h.95zM45.55 31.33l.07.88.2.85.35.8.45.74.56.65.66.56.74.47.8.33.84.2.9.07h120.25l1 .08 1 .24.92.38.87.53.77.67.67.77.53.87.4.95.23.98.08 1v290.7h-.94V43.36l-.07-.9-.2-.83-.34-.8-.46-.74-.56-.66-.66-.56-.74-.46-.8-.33-.84-.2-.88-.08H51.05l-1-.08-.98-.23-.94-.38-.87-.53-.77-.67-.67-.78-.53-.86-.4-.95-.23-1-.08-1V29.8h.94z" stroke="#008a0e" stroke-width=".05" fill="#008a0e"/><path d="M45.54 29.8h-.95v-.13l.94-.76z" fill="#008a0e"/><path stroke="#008a0e" stroke-width=".05" fill="#008a0e"/><path d="M599.64 367.93l-14.96-1.14 3.52-8.58z" fill="#008a0e"/><path d="M601.06 368.52l-17.07-1.3 4-9.8zm-15.7-2.15l12.86.98-9.83-8.35z" stroke="#008a0e" stroke-width=".05" fill="#008a0e"/><g><use xlink:href="#ab" transform="matrix(1,0,0,1,162.02469135802497,334.02000329698905) translate(0 14.222222222222223)"/></g><path d="M81 2.67h-5.05v-.94H81zm15.16 0h-10.1v-.94h10.1zm15.15 0h-10.1v-.94h10.1zm15.16 0h-10.1v-.94h10.1zm15.15 0h-10.1v-.94h10.1zm15.16 0h-10.1v-.94h10.1zm15.15 0h-10.1v-.94h10.1zm15.16 0h-10.1v-.94h10.1zm15.15 0h-10.1v-.94h10.1zm15.17 0h-10.1v-.94h10.1zm15.15 0h-10.1v-.94h10.1zm15.15 0h-10.1v-.94h10.1zm15.15 0h-10.1v-.94h10.1zm15.15 0h-10.1v-.94h10.1zm15.15 0h-10.1v-.94h10.1zm15.15 0h-10.1v-.94h10.1zm15.15 0h-10.1v-.94h10.1zm6.24 0h-1.2v-.94h1.2zm39.22 0h-10.1v-.94h10.1zm15.15 0h-10.1v-.94h10.1zm15.15 0h-10.1v-.94h10.1zm15.15 0h-10.1v-.94h10.1zm15.15 0h-10.1v-.94h10.1zm15.15 0h-10.1v-.94h10.1zm15.16 0h-10.12v-.94h10.1zm15.14 0h-10.1v-.94h10.1zm15.15 0H480v-.94h10.1zm15.14 0h-10.1v-.94h10.1zm15.15 0h-10.1v-.94h10.1zm15.14 0h-10.1v-.94h10.1zm15.15 0h-10.1v-.94h10.1zm15.14 0h-10.1v-.94h10.1zm15.15 0h-10.1v-.94H581zm10.1 0h-5.06v-.94h5.06zm-237.37 0h-.46v-.94h.46z" stroke="#e81313" stroke-width=".05" fill="#e81313"/><path d="M75.97 2.67h-.56l.05-.47-.04-.48h.57z" fill="#e81313"/><path stroke="#e81313" stroke-width=".05" fill="#e81313"/><path d="M599.76 7.68l-14.53-3.7 4.95-7.84z" fill="#e81313"/><path d="M601.06 8.5l-16.58-4.23 5.65-8.94zm-15.08-4.82l12.5 3.18-8.24-9.9z" stroke="#e81313" stroke-width=".05" fill="#e81313"/><g><use xlink:href="#ac" transform="matrix(1,0,0,1,329.66401871465973,-8.466666666666736) translate(0 14.222222222222223)"/></g><path d="M1274.35 597.14l1 .23.92.4.87.52.77.65.67.78.53.86.4.93.23 1 .08 1v295.65l.08.88.2.85.33.8.46.75.57.66.66.57.73.45.8.33.84.2.88.08h187.97l.88-.07.84-.2.8-.34.74-.45.66-.56.56-.65.46-.74.33-.8.2-.84.06-.88v-41.3h.95v41.34l-.07 1-.24.98-.4.94-.53.87-.66.78-.76.66-.87.53-.93.4-1 .23-1 .07h-188.02l-1-.07-1-.24-.93-.4-.87-.52-.78-.66-.66-.77-.54-.86-.4-.94-.22-1-.08-.98V603.55l-.07-.88-.2-.84-.34-.8-.46-.74-.56-.67-.66-.56-.74-.46-.8-.32-.84-.2-.88-.07h-92.5v-.94h92.53zm205.46 239.4h-.94v-1094.4h.95z" stroke="#3a414a" stroke-width=".05" fill="#3a414a"/><path d="M1180.85 598h-.52v-.94h.52z" fill="#3a414a"/><path stroke="#3a414a" stroke-width=".05" fill="#3a414a"/><path d="M1483.97-258.35h-9.27l4.63-14.27z" fill="#3a414a"/><path d="M1484.62-257.88h-10.58l5.3-16.27zm-9.27-.95h7.97l-4-12.25z" stroke="#3a414a" stroke-width=".05" fill="#3a414a"/><path d="M753.53 49.7a5.58 5.58 0 0 0 5.58 5.57h200.85" stroke="#3a414a" fill="none"/><path d="M754 49.7h-.94v-.13l.95-.76z" stroke="#3a414a" stroke-width=".05" fill="#3a414a"/><path d="M974.7 55.27l-14.25 4.63v-9.27z" stroke="#3a414a" fill="#3a414a"/><path d="M1479.8 312.67l-.07 1-.24 1-.4.93-.53.86-.66.78-.76.65-.87.53-.93.38-1 .25-1 .08h-713.8l-.87.07-.84.2-.8.33-.74.46-.67.55-.56.66-.46.75-.32.8-.2.84-.07.87v586.38h-.94v-586.4l.08-1 .23-1 .4-.94.52-.85.65-.77.78-.66.86-.54.93-.38 1-.24 1-.08h713.8l.87-.07.84-.2.8-.32.74-.46.66-.56.56-.66.46-.74.33-.8.2-.84.06-.88v-570.5h.95z" stroke="#3a414a" stroke-width=".05" fill="#3a414a"/><path d="M754 911.93l-.94-.76v-.14h.95z" fill="#3a414a"/><path stroke="#3a414a" stroke-width=".05" fill="#3a414a"/><path d="M1483.97-258.35h-9.27l4.63-14.27z" fill="#3a414a"/><path d="M1484.62-257.88h-10.58l5.3-16.27zm-9.27-.95h7.97l-4-12.25zM1274.35-152.53l1 .24.92.4.87.53.77.66.67.76.53.87.4.94.23.98.08 1V899.18l.08.88.2.85.33.8.46.75.57.66.66.57.73.45.8.33.84.2.88.08h187.97l.88-.07.84-.2.8-.34.74-.45.66-.56.56-.65.46-.74.33-.8.2-.84.06-.88v-41.3h.95v41.34l-.07 1-.24.98-.4.94-.53.87-.66.78-.76.66-.87.53-.93.4-1 .23-1 .07h-188.02l-1-.07-1-.24-.93-.4-.87-.52-.78-.66-.66-.77-.54-.86-.4-.94-.22-1-.08-.98V-146.12l-.07-.88-.2-.84-.34-.8-.46-.74-.56-.66-.66-.56-.74-.46-.8-.33-.84-.2-.88-.06H183.35l-.88.07-.84.2-.8.34-.74.46-.67.56-.56.66-.46.74-.32.8-.2.84-.07.88V-37.9l-.07 1-.24.98-.4.94-.53.87-.66.76-.76.66-.87.53-.94.4-.98.23-1 .08H51.1l-.9.07-.84.2-.8.33-.74.45-.66.58-.56.66-.45.73-.34.8-.2.85-.06.88v.5h-.95v-.54l.07-1 .24-.98.4-.94.53-.87.66-.77.76-.66.87-.53.94-.38.98-.23 1-.1h120.27l.88-.06.84-.2.8-.34.74-.45.66-.56.56-.67.45-.74.34-.8.2-.85.06-.9v-108.2l.08-1 .23-.98.4-.94.52-.87.65-.77.78-.67.86-.53.93-.4 1-.23.98-.08h1090.05zm205.46 989.08h-.94v-1094.4h.95z" stroke="#3a414a" stroke-width=".05" fill="#3a414a"/><path d="M45.54-24.5l-.95-.77v-.14h.94z" fill="#3a414a"/><path stroke="#3a414a" stroke-width=".05" fill="#3a414a"/><path d="M1483.97-258.35h-9.27l4.63-14.27z" fill="#3a414a"/><path d="M1484.62-257.88h-10.58l5.3-16.27zm-9.27-.95h7.97l-4-12.25zM754.07 410.4l.17.72.28.68.38.62.47.55.55.47.63.4.67.27.7.17.75.06h514.68l1 .08 1 .25.92.4.87.52.77.66.67.77.53.87.4.94.23 1 .08 1v478.38l.08.88.2.85.33.8.46.75.57.66.66.57.73.45.8.33.84.2.88.08h187.97l.88-.07.84-.2.8-.34.74-.45.66-.56.56-.65.46-.74.33-.8.2-.84.06-.88v-41.3h.95v41.34l-.07 1-.24.98-.4.94-.53.87-.66.78-.76.66-.87.53-.93.4-1 .23-1 .07h-188.02l-1-.07-1-.24-.93-.4-.87-.52-.78-.66-.66-.77-.54-.86-.4-.94-.22-1-.08-.98v-478.4l-.07-.88-.2-.84-.34-.8-.46-.74-.56-.66-.66-.56-.74-.45-.8-.34-.84-.2-.88-.08H758.64l-.86-.06-.85-.2-.82-.34-.74-.46-.66-.58-.57-.66-.46-.75-.34-.8-.2-.87-.07-.84.95-.07zm725.74 426.15h-.94v-1094.4h.95z" stroke="#3a414a" stroke-width=".05" fill="#3a414a"/><path d="M754 409.7h-.94v-.13l.95-.76z" fill="#3a414a"/><path stroke="#3a414a" stroke-width=".05" fill="#3a414a"/><path d="M1483.97-258.35h-9.27l4.63-14.27z" fill="#3a414a"/><path d="M1484.62-257.88h-10.58l5.3-16.27zm-9.27-.95h7.97l-4-12.25z" stroke="#3a414a" stroke-width=".05" fill="#3a414a"/><path d="M1577.95-353.13h986" stroke="#3a414a" fill="none"/><path d="M1577.97-352.66h-.56l.05-.47-.04-.48h.57z" stroke="#3a414a" stroke-width=".05" fill="#3a414a"/><path d="M2578.72-353.13l-14.27 4.63v-9.27z" stroke="#3a414a" fill="#3a414a"/><defs><path d="M185-189c-5-48-123-54-124 2 14 75 158 14 163 119 3 78-121 87-175 55-17-10-28-26-33-46l33-7c5 56 141 63 141-1 0-78-155-14-162-118-5-82 145-84 179-34 5 7 8 16 11 25" id="ad"/><path d="M59-47c-2 24 18 29 38 22v24C64 9 27 4 27-40v-127H5v-23h24l9-43h21v43h35v23H59v120" id="ae"/><path d="M141-36C126-15 110 5 73 4 37 3 15-17 15-53c-1-64 63-63 125-63 3-35-9-54-41-54-24 1-41 7-42 31l-33-3c5-37 33-52 76-52 45 0 72 20 72 64v82c-1 20 7 32 28 27v20c-31 9-61-2-59-35zM48-53c0 20 12 33 32 33 41-3 63-29 60-74-43 2-92-5-92 41" id="af"/><path d="M114-163C36-179 61-72 57 0H25l-1-190h30c1 12-1 29 2 39 6-27 23-49 58-41v29" id="ag"/><g id="a"><use transform="matrix(0.06172839506172839,0,0,0.06172839506172839,0,0)" xlink:href="#ad"/><use transform="matrix(0.06172839506172839,0,0,0.06172839506172839,14.814814814814813,0)" xlink:href="#ae"/><use transform="matrix(0.06172839506172839,0,0,0.06172839506172839,20.98765432098765,0)" xlink:href="#af"/><use transform="matrix(0.06172839506172839,0,0,0.06172839506172839,33.33333333333333,0)" xlink:href="#ag"/><use transform="matrix(0.06172839506172839,0,0,0.06172839506172839,40.679012345679006,0)" xlink:href="#ae"/></g><path d="M33 0v-248h34V0H33" id="ah"/><path d="M85-194c31 0 48 13 60 33l-1-100h32l1 261h-30c-2-10 0-23-3-31C134-8 116 4 85 4 32 4 16-35 15-94c0-66 23-100 70-100zm9 24c-40 0-46 34-46 75 0 40 6 74 45 74 42 0 51-32 51-76 0-42-9-74-50-73" id="ai"/><path d="M24 0v-261h32V0H24" id="aj"/><path d="M100-194c63 0 86 42 84 106H49c0 40 14 67 53 68 26 1 43-12 49-29l28 8c-11 28-37 45-77 45C44 4 14-33 15-96c1-61 26-98 85-98zm52 81c6-60-76-77-97-28-3 7-6 17-6 28h103" id="ak"/><path d="M33-154v-36h34v36H33zM33 0v-36h34V0H33" id="al"/><g id="b"><use transform="matrix(0.06172839506172839,0,0,0.06172839506172839,0,0)" xlink:href="#ah"/><use transform="matrix(0.06172839506172839,0,0,0.06172839506172839,6.172839506172839,0)" xlink:href="#ai"/><use transform="matrix(0.06172839506172839,0,0,0.06172839506172839,18.51851851851852,0)" xlink:href="#aj"/><use transform="matrix(0.06172839506172839,0,0,0.06172839506172839,23.395061728395063,0)" xlink:href="#ak"/><use transform="matrix(0.06172839506172839,0,0,0.06172839506172839,35.74074074074074,0)" xlink:href="#al"/></g><path d="M266 0h-40l-56-210L115 0H75L2-248h35L96-30l15-64 43-154h32l59 218 59-218h35" id="am"/><path d="M24-231v-30h32v30H24zM24 0v-190h32V0H24" id="an"/><g id="c"><use transform="matrix(0.06172839506172839,0,0,0.06172839506172839,0,0)" xlink:href="#am"/><use transform="matrix(0.06172839506172839,0,0,0.06172839506172839,20.123456790123456,0)" xlink:href="#af"/><use transform="matrix(0.06172839506172839,0,0,0.06172839506172839,32.46913580246913,0)" xlink:href="#an"/><use transform="matrix(0.06172839506172839,0,0,0.06172839506172839,37.34567901234568,0)" xlink:href="#ae"/></g><path d="M101-234c-31-9-42 10-38 44h38v23H63V0H32v-167H5v-23h27c-7-52 17-82 69-68v24" id="ao"/><path d="M100-194c62-1 85 37 85 99 1 63-27 99-86 99S16-35 15-95c0-66 28-99 85-99zM99-20c44 1 53-31 53-75 0-43-8-75-51-75s-53 32-53 75 10 74 51 75" id="ap"/><g id="d"><use transform="matrix(0.06172839506172839,0,0,0.06172839506172839,0,0)" xlink:href="#ao"/><use transform="matrix(0.06172839506172839,0,0,0.06172839506172839,6.172839506172839,0)" xlink:href="#ap"/><use transform="matrix(0.06172839506172839,0,0,0.06172839506172839,18.51851851851852,0)" xlink:href="#ag"/></g><g id="e"><use transform="matrix(0.06172839506172839,0,0,0.06172839506172839,0,0)" xlink:href="#ao"/><use transform="matrix(0.06172839506172839,0,0,0.06172839506172839,6.172839506172839,0)" xlink:href="#aj"/><use transform="matrix(0.06172839506172839,0,0,0.06172839506172839,11.049382716049383,0)" xlink:href="#ap"/><use transform="matrix(0.06172839506172839,0,0,0.06172839506172839,23.395061728395063,0)" xlink:href="#ap"/><use transform="matrix(0.06172839506172839,0,0,0.06172839506172839,35.74074074074074,0)" xlink:href="#ag"/></g><path d="M145-31C134-9 116 4 85 4 32 4 16-35 15-94c0-59 17-99 70-100 32-1 48 14 60 33 0-11-1-24 2-32h30l-1 268h-32zM93-21c41 0 51-33 51-76s-8-73-50-73c-40 0-46 35-46 75s5 74 45 74" id="aq"/><path d="M84 4C-5 8 30-112 23-190h32v120c0 31 7 50 39 49 72-2 45-101 50-169h31l1 190h-30c-1-10 1-25-2-33-11 22-28 36-60 37" id="ar"/><path d="M135-143c-3-34-86-38-87 0 15 53 115 12 119 90S17 21 10-45l28-5c4 36 97 45 98 0-10-56-113-15-118-90-4-57 82-63 122-42 12 7 21 19 24 35" id="as"/><g id="f"><use transform="matrix(0.06172839506172839,0,0,0.06172839506172839,0,0)" xlink:href="#ag"/><use transform="matrix(0.06172839506172839,0,0,0.06172839506172839,7.345679012345679,0)" xlink:href="#ak"/><use transform="matrix(0.06172839506172839,0,0,0.06172839506172839,19.691358024691358,0)" xlink:href="#aq"/><use transform="matrix(0.06172839506172839,0,0,0.06172839506172839,32.03703703703704,0)" xlink:href="#ar"/><use transform="matrix(0.06172839506172839,0,0,0.06172839506172839,44.382716049382715,0)" xlink:href="#ak"/><use transform="matrix(0.06172839506172839,0,0,0.06172839506172839,56.72839506172839,0)" xlink:href="#as"/><use transform="matrix(0.06172839506172839,0,0,0.06172839506172839,67.8395061728395,0)" xlink:href="#ae"/></g><path d="M205 0l-28-72H64L36 0H1l101-248h38L239 0h-34zm-38-99l-47-123c-12 45-31 82-46 123h93" id="at"/><path d="M117-194c89-4 53 116 60 194h-32v-121c0-31-8-49-39-48C34-167 62-67 57 0H25l-1-190h30c1 10-1 24 2 32 11-22 29-35 61-36" id="au"/><path d="M179-190L93 31C79 59 56 82 12 73V49c39 6 53-20 64-50L1-190h34L92-34l54-156h33" id="av"/><g id="g"><use transform="matrix(0.06172839506172839,0,0,0.06172839506172839,0,0)" xlink:href="#at"/><use transform="matrix(0.06172839506172839,0,0,0.06172839506172839,14.814814814814813,0)" xlink:href="#au"/><use transform="matrix(0.06172839506172839,0,0,0.06172839506172839,27.160493827160494,0)" xlink:href="#av"/></g><g id="h"><use transform="matrix(0.06172839506172839,0,0,0.06172839506172839,0,0)" xlink:href="#ao"/><use transform="matrix(0.06172839506172839,0,0,0.06172839506172839,6.172839506172839,0)" xlink:href="#aj"/><use transform="matrix(0.06172839506172839,0,0,0.06172839506172839,11.049382716049383,0)" xlink:href="#ap"/><use transform="matrix(0.06172839506172839,0,0,0.06172839506172839,23.395061728395063,0)" xlink:href="#ap"/><use transform="matrix(0.06172839506172839,0,0,0.06172839506172839,35.74074074074074,0)" xlink:href="#ag"/></g><path d="M103-251c84 0 111 97 45 133-19 10-37 24-39 52H78c0-63 77-55 77-114 0-30-21-42-52-43-32 0-53 17-56 46l-32-2c7-45 34-72 88-72zM77 0v-35h34V0H77" id="aw"/><g id="i"><use transform="matrix(0.06172839506172839,0,0,0.06172839506172839,0,0)" xlink:href="#ag"/><use transform="matrix(0.06172839506172839,0,0,0.06172839506172839,7.345679012345679,0)" xlink:href="#ak"/><use transform="matrix(0.06172839506172839,0,0,0.06172839506172839,19.691358024691358,0)" xlink:href="#aq"/><use transform="matrix(0.06172839506172839,0,0,0.06172839506172839,32.03703703703704,0)" xlink:href="#ar"/><use transform="matrix(0.06172839506172839,0,0,0.06172839506172839,44.382716049382715,0)" xlink:href="#ak"/><use transform="matrix(0.06172839506172839,0,0,0.06172839506172839,56.72839506172839,0)" xlink:href="#as"/><use transform="matrix(0.06172839506172839,0,0,0.06172839506172839,67.8395061728395,0)" xlink:href="#ae"/><use transform="matrix(0.06172839506172839,0,0,0.06172839506172839,74.01234567901234,0)" xlink:href="#aw"/></g><path d="M233-177c-1 41-23 64-60 70L243 0h-38l-65-103H63V0H30v-248c88 3 205-21 203 71zM63-129c60-2 137 13 137-47 0-61-80-42-137-45v92" id="ax"/><g id="j"><use transform="matrix(0.06172839506172839,0,0,0.06172839506172839,0,0)" xlink:href="#ax"/><use transform="matrix(0.06172839506172839,0,0,0.06172839506172839,15.987654320987653,0)" xlink:href="#ak"/><use transform="matrix(0.06172839506172839,0,0,0.06172839506172839,28.333333333333332,0)" xlink:href="#aq"/><use transform="matrix(0.06172839506172839,0,0,0.06172839506172839,40.67901234567901,0)" xlink:href="#ar"/><use transform="matrix(0.06172839506172839,0,0,0.06172839506172839,53.02469135802469,0)" xlink:href="#ak"/><use transform="matrix(0.06172839506172839,0,0,0.06172839506172839,65.37037037037037,0)" xlink:href="#as"/><use transform="matrix(0.06172839506172839,0,0,0.06172839506172839,76.48148148148148,0)" xlink:href="#ae"/></g><path d="M108 0H70L1-190h34L89-25l56-165h34" id="ay"/><g id="k"><use transform="matrix(0.06172839506172839,0,0,0.06172839506172839,0,0)" xlink:href="#ax"/><use transform="matrix(0.06172839506172839,0,0,0.06172839506172839,15.987654320987653,0)" xlink:href="#ak"/><use transform="matrix(0.06172839506172839,0,0,0.06172839506172839,28.333333333333332,0)" xlink:href="#as"/><use transform="matrix(0.06172839506172839,0,0,0.06172839506172839,39.44444444444444,0)" xlink:href="#ap"/><use transform="matrix(0.06172839506172839,0,0,0.06172839506172839,51.79012345679012,0)" xlink:href="#aj"/><use transform="matrix(0.06172839506172839,0,0,0.06172839506172839,56.666666666666664,0)" xlink:href="#ay"/><use transform="matrix(0.06172839506172839,0,0,0.06172839506172839,67.77777777777777,0)" xlink:href="#ak"/><use transform="matrix(0.06172839506172839,0,0,0.06172839506172839,80.12345679012346,0)" xlink:href="#ag"/><use transform="matrix(0.06172839506172839,0,0,0.06172839506172839,87.46913580246914,0)" xlink:href="#al"/></g><path d="M30-248c118-7 216 8 213 122C240-48 200 0 122 0H30v-248zM63-27c89 8 146-16 146-99s-60-101-146-95v194" id="az"/><path d="M210-169c-67 3-38 105-44 169h-31v-121c0-29-5-50-35-48C34-165 62-65 56 0H25l-1-190h30c1 10-1 24 2 32 10-44 99-50 107 0 11-21 27-35 58-36 85-2 47 119 55 194h-31v-121c0-29-5-49-35-48" id="aA"/><g id="l"><use transform="matrix(0.06172839506172839,0,0,0.06172839506172839,0,0)" xlink:href="#az"/><use transform="matrix(0.06172839506172839,0,0,0.06172839506172839,15.987654320987653,0)" xlink:href="#ak"/><use transform="matrix(0.06172839506172839,0,0,0.06172839506172839,28.333333333333332,0)" xlink:href="#ae"/><use transform="matrix(0.06172839506172839,0,0,0.06172839506172839,34.50617283950617,0)" xlink:href="#ak"/><use transform="matrix(0.06172839506172839,0,0,0.06172839506172839,46.85185185185185,0)" xlink:href="#ag"/><use transform="matrix(0.06172839506172839,0,0,0.06172839506172839,54.197530864197525,0)" xlink:href="#aA"/><use transform="matrix(0.06172839506172839,0,0,0.06172839506172839,72.65432098765432,0)" xlink:href="#an"/><use transform="matrix(0.06172839506172839,0,0,0.06172839506172839,77.53086419753086,0)" xlink:href="#au"/><use transform="matrix(0.06172839506172839,0,0,0.06172839506172839,89.87654320987654,0)" xlink:href="#ak"/></g><path d="M141 0L90-78 38 0H4l68-98-65-92h35l48 74 47-74h35l-64 92 68 98h-35" id="aB"/><g id="m"><use transform="matrix(0.06172839506172839,0,0,0.06172839506172839,0,0)" xlink:href="#au"/><use transform="matrix(0.06172839506172839,0,0,0.06172839506172839,12.345679012345679,0)" xlink:href="#ak"/><use transform="matrix(0.06172839506172839,0,0,0.06172839506172839,24.691358024691358,0)" xlink:href="#aB"/><use transform="matrix(0.06172839506172839,0,0,0.06172839506172839,35.80246913580247,0)" xlink:href="#ae"/></g><path d="M115-194c53 0 69 39 70 98 0 66-23 100-70 100C84 3 66-7 56-30L54 0H23l1-261h32v101c10-23 28-34 59-34zm-8 174c40 0 45-34 45-75 0-40-5-75-45-74-42 0-51 32-51 76 0 43 10 73 51 73" id="aC"/><g id="n"><use transform="matrix(0.06172839506172839,0,0,0.06172839506172839,0,0)" xlink:href="#aC"/><use transform="matrix(0.06172839506172839,0,0,0.06172839506172839,12.345679012345679,0)" xlink:href="#af"/><use transform="matrix(0.06172839506172839,0,0,0.06172839506172839,24.691358024691358,0)" xlink:href="#as"/><use transform="matrix(0.06172839506172839,0,0,0.06172839506172839,35.80246913580247,0)" xlink:href="#ak"/><use transform="matrix(0.06172839506172839,0,0,0.06172839506172839,48.148148148148145,0)" xlink:href="#ai"/></g><g id="o"><use transform="matrix(0.06172839506172839,0,0,0.06172839506172839,0,0)" xlink:href="#ap"/><use transform="matrix(0.06172839506172839,0,0,0.06172839506172839,12.345679012345679,0)" xlink:href="#au"/></g><g id="p"><use transform="matrix(0.06172839506172839,0,0,0.06172839506172839,0,0)" xlink:href="#ag"/><use transform="matrix(0.06172839506172839,0,0,0.06172839506172839,7.345679012345679,0)" xlink:href="#ak"/><use transform="matrix(0.06172839506172839,0,0,0.06172839506172839,19.691358024691358,0)" xlink:href="#aq"/><use transform="matrix(0.06172839506172839,0,0,0.06172839506172839,32.03703703703704,0)" xlink:href="#ar"/><use transform="matrix(0.06172839506172839,0,0,0.06172839506172839,44.382716049382715,0)" xlink:href="#ak"/><use transform="matrix(0.06172839506172839,0,0,0.06172839506172839,56.72839506172839,0)" xlink:href="#as"/><use transform="matrix(0.06172839506172839,0,0,0.06172839506172839,67.8395061728395,0)" xlink:href="#ae"/><use transform="matrix(0.06172839506172839,0,0,0.06172839506172839,74.01234567901234,0)" xlink:href="#as"/></g><g id="q"><use transform="matrix(0.06172839506172839,0,0,0.06172839506172839,0,0)" xlink:href="#ah"/><use transform="matrix(0.06172839506172839,0,0,0.06172839506172839,6.172839506172839,0)" xlink:href="#as"/></g><g id="r"><use transform="matrix(0.06172839506172839,0,0,0.06172839506172839,0,0)" xlink:href="#ak"/><use transform="matrix(0.06172839506172839,0,0,0.06172839506172839,12.345679012345679,0)" xlink:href="#aj"/><use transform="matrix(0.06172839506172839,0,0,0.06172839506172839,17.22222222222222,0)" xlink:href="#ak"/><use transform="matrix(0.06172839506172839,0,0,0.06172839506172839,29.5679012345679,0)" xlink:href="#ay"/><use transform="matrix(0.06172839506172839,0,0,0.06172839506172839,40.67901234567901,0)" xlink:href="#af"/><use transform="matrix(0.06172839506172839,0,0,0.06172839506172839,53.02469135802469,0)" xlink:href="#ae"/><use transform="matrix(0.06172839506172839,0,0,0.06172839506172839,59.19753086419753,0)" xlink:href="#ap"/><use transform="matrix(0.06172839506172839,0,0,0.06172839506172839,71.54320987654322,0)" xlink:href="#ag"/></g><path d="M177-190C167-65 218 103 67 71c-23-6-38-20-44-43l32-5c15 47 100 32 89-28v-30C133-14 115 1 83 1 29 1 15-40 15-95c0-56 16-97 71-98 29-1 48 16 59 35 1-10 0-23 2-32h30zM94-22c36 0 50-32 50-73 0-42-14-75-50-75-39 0-46 34-46 75s6 73 46 73" id="aD"/><g id="s"><use transform="matrix(0.06172839506172839,0,0,0.06172839506172839,0,0)" xlink:href="#aA"/><use transform="matrix(0.06172839506172839,0,0,0.06172839506172839,18.456790123456788,0)" xlink:href="#ap"/><use transform="matrix(0.06172839506172839,0,0,0.06172839506172839,30.80246913580247,0)" xlink:href="#ay"/><use transform="matrix(0.06172839506172839,0,0,0.06172839506172839,41.91358024691358,0)" xlink:href="#an"/><use transform="matrix(0.06172839506172839,0,0,0.06172839506172839,46.79012345679013,0)" xlink:href="#au"/><use transform="matrix(0.06172839506172839,0,0,0.06172839506172839,59.135802469135804,0)" xlink:href="#aD"/></g><g id="t"><use transform="matrix(0.06172839506172839,0,0,0.06172839506172839,0,0)" xlink:href="#an"/><use transform="matrix(0.06172839506172839,0,0,0.06172839506172839,4.876543209876543,0)" xlink:href="#au"/></g><path d="M106-169C34-169 62-67 57 0H25v-261h32l-1 103c12-21 28-36 61-36 89 0 53 116 60 194h-32v-121c2-32-8-49-39-48" id="aE"/><g id="u"><use transform="matrix(0.06172839506172839,0,0,0.06172839506172839,0,0)" xlink:href="#ae"/><use transform="matrix(0.06172839506172839,0,0,0.06172839506172839,6.172839506172839,0)" xlink:href="#aE"/><use transform="matrix(0.06172839506172839,0,0,0.06172839506172839,18.51851851851852,0)" xlink:href="#ak"/></g><g id="v"><use transform="matrix(0.06172839506172839,0,0,0.06172839506172839,0,0)" xlink:href="#as"/><use transform="matrix(0.06172839506172839,0,0,0.06172839506172839,11.11111111111111,0)" xlink:href="#af"/><use transform="matrix(0.06172839506172839,0,0,0.06172839506172839,23.45679012345679,0)" xlink:href="#aA"/><use transform="matrix(0.06172839506172839,0,0,0.06172839506172839,41.91358024691358,0)" xlink:href="#ak"/></g><path d="M96-169c-40 0-48 33-48 73s9 75 48 75c24 0 41-14 43-38l32 2c-6 37-31 61-74 61-59 0-76-41-82-99-10-93 101-131 147-64 4 7 5 14 7 22l-32 3c-4-21-16-35-41-35" id="aF"/><g id="w"><use transform="matrix(0.06172839506172839,0,0,0.06172839506172839,0,0)" xlink:href="#ai"/><use transform="matrix(0.06172839506172839,0,0,0.06172839506172839,12.345679012345679,0)" xlink:href="#an"/><use transform="matrix(0.06172839506172839,0,0,0.06172839506172839,17.22222222222222,0)" xlink:href="#ag"/><use transform="matrix(0.06172839506172839,0,0,0.06172839506172839,24.5679012345679,0)" xlink:href="#ak"/><use transform="matrix(0.06172839506172839,0,0,0.06172839506172839,36.913580246913575,0)" xlink:href="#aF"/><use transform="matrix(0.06172839506172839,0,0,0.06172839506172839,48.02469135802468,0)" xlink:href="#ae"/><use transform="matrix(0.06172839506172839,0,0,0.06172839506172839,54.197530864197525,0)" xlink:href="#an"/><use transform="matrix(0.06172839506172839,0,0,0.06172839506172839,59.07407407407407,0)" xlink:href="#ap"/><use transform="matrix(0.06172839506172839,0,0,0.06172839506172839,71.41975308641975,0)" xlink:href="#au"/><use transform="matrix(0.06172839506172839,0,0,0.06172839506172839,83.76543209876543,0)" xlink:href="#aw"/></g><path d="M232-93c-1 65-40 97-104 97C67 4 28-28 28-90v-158h33c8 89-33 224 67 224 102 0 64-133 71-224h33v155" id="aG"/><g id="x"><use transform="matrix(0.06172839506172839,0,0,0.06172839506172839,0,0)" xlink:href="#aG"/><use transform="matrix(0.06172839506172839,0,0,0.06172839506172839,15.987654320987653,0)" xlink:href="#au"/><use transform="matrix(0.06172839506172839,0,0,0.06172839506172839,28.333333333333332,0)" xlink:href="#an"/><use transform="matrix(0.06172839506172839,0,0,0.06172839506172839,33.20987654320987,0)" xlink:href="#ae"/></g><path d="M212-179c-10-28-35-45-73-45-59 0-87 40-87 99 0 60 29 101 89 101 43 0 62-24 78-52l27 14C228-24 195 4 139 4 59 4 22-46 18-125c-6-104 99-153 187-111 19 9 31 26 39 46" id="aH"/><g id="y"><use transform="matrix(0.06172839506172839,0,0,0.06172839506172839,0,0)" xlink:href="#aH"/><use transform="matrix(0.06172839506172839,0,0,0.06172839506172839,15.987654320987653,0)" xlink:href="#ap"/><use transform="matrix(0.06172839506172839,0,0,0.06172839506172839,28.333333333333332,0)" xlink:href="#au"/><use transform="matrix(0.06172839506172839,0,0,0.06172839506172839,40.67901234567901,0)" xlink:href="#ae"/><use transform="matrix(0.06172839506172839,0,0,0.06172839506172839,46.851851851851855,0)" xlink:href="#ag"/><use transform="matrix(0.06172839506172839,0,0,0.06172839506172839,54.19753086419753,0)" xlink:href="#ap"/><use transform="matrix(0.06172839506172839,0,0,0.06172839506172839,66.54320987654322,0)" xlink:href="#aj"/><use transform="matrix(0.06172839506172839,0,0,0.06172839506172839,71.41975308641976,0)" xlink:href="#al"/></g><path d="M240 0l2-218c-23 76-54 145-80 218h-23L58-218 59 0H30v-248h44l77 211c21-75 51-140 76-211h43V0h-30" id="aI"/><g id="z"><use transform="matrix(0.06172839506172839,0,0,0.06172839506172839,0,0)" xlink:href="#aI"/><use transform="matrix(0.06172839506172839,0,0,0.06172839506172839,18.456790123456788,0)" xlink:href="#ap"/><use transform="matrix(0.06172839506172839,0,0,0.06172839506172839,30.80246913580247,0)" xlink:href="#ay"/><use transform="matrix(0.06172839506172839,0,0,0.06172839506172839,41.91358024691358,0)" xlink:href="#ak"/></g><g id="A"><use transform="matrix(0.06172839506172839,0,0,0.06172839506172839,0,0)" xlink:href="#ae"/><use transform="matrix(0.06172839506172839,0,0,0.06172839506172839,6.172839506172839,0)" xlink:href="#ap"/></g><g id="B"><use transform="matrix(0.06172839506172839,0,0,0.06172839506172839,0,0)" xlink:href="#ag"/><use transform="matrix(0.06172839506172839,0,0,0.06172839506172839,7.345679012345679,0)" xlink:href="#ak"/><use transform="matrix(0.06172839506172839,0,0,0.06172839506172839,19.691358024691358,0)" xlink:href="#aq"/><use transform="matrix(0.06172839506172839,0,0,0.06172839506172839,32.03703703703704,0)" xlink:href="#ar"/><use transform="matrix(0.06172839506172839,0,0,0.06172839506172839,44.382716049382715,0)" xlink:href="#ak"/><use transform="matrix(0.06172839506172839,0,0,0.06172839506172839,56.72839506172839,0)" xlink:href="#as"/><use transform="matrix(0.06172839506172839,0,0,0.06172839506172839,67.8395061728395,0)" xlink:href="#ae"/><use transform="matrix(0.06172839506172839,0,0,0.06172839506172839,74.01234567901234,0)" xlink:href="#ak"/><use transform="matrix(0.06172839506172839,0,0,0.06172839506172839,86.35802469135803,0)" xlink:href="#ai"/></g><g id="C"><use transform="matrix(0.06172839506172839,0,0,0.06172839506172839,0,0)" xlink:href="#ao"/><use transform="matrix(0.06172839506172839,0,0,0.06172839506172839,6.172839506172839,0)" xlink:href="#aj"/><use transform="matrix(0.06172839506172839,0,0,0.06172839506172839,11.049382716049383,0)" xlink:href="#ap"/><use transform="matrix(0.06172839506172839,0,0,0.06172839506172839,23.395061728395063,0)" xlink:href="#ap"/><use transform="matrix(0.06172839506172839,0,0,0.06172839506172839,35.74074074074074,0)" xlink:href="#ag"/></g><g id="D"><use transform="matrix(0.06172839506172839,0,0,0.06172839506172839,0,0)" xlink:href="#at"/><use transform="matrix(0.06172839506172839,0,0,0.06172839506172839,14.814814814814813,0)" xlink:href="#ag"/><use transform="matrix(0.06172839506172839,0,0,0.06172839506172839,22.160493827160494,0)" xlink:href="#ak"/></g><g id="E"><use transform="matrix(0.06172839506172839,0,0,0.06172839506172839,0,0)" xlink:href="#ae"/><use transform="matrix(0.06172839506172839,0,0,0.06172839506172839,6.172839506172839,0)" xlink:href="#aE"/><use transform="matrix(0.06172839506172839,0,0,0.06172839506172839,18.51851851851852,0)" xlink:href="#ak"/><use transform="matrix(0.06172839506172839,0,0,0.06172839506172839,30.864197530864196,0)" xlink:href="#ag"/><use transform="matrix(0.06172839506172839,0,0,0.06172839506172839,38.20987654320987,0)" xlink:href="#ak"/></g><g id="F"><use transform="matrix(0.06172839506172839,0,0,0.06172839506172839,0,0)" xlink:href="#ag"/><use transform="matrix(0.06172839506172839,0,0,0.06172839506172839,7.345679012345679,0)" xlink:href="#ak"/><use transform="matrix(0.06172839506172839,0,0,0.06172839506172839,19.691358024691358,0)" xlink:href="#aq"/><use transform="matrix(0.06172839506172839,0,0,0.06172839506172839,32.03703703703704,0)" xlink:href="#ar"/><use transform="matrix(0.06172839506172839,0,0,0.06172839506172839,44.382716049382715,0)" xlink:href="#ak"/><use transform="matrix(0.06172839506172839,0,0,0.06172839506172839,56.72839506172839,0)" xlink:href="#as"/><use transform="matrix(0.06172839506172839,0,0,0.06172839506172839,67.8395061728395,0)" xlink:href="#ae"/><use transform="matrix(0.06172839506172839,0,0,0.06172839506172839,74.01234567901234,0)" xlink:href="#as"/></g><path d="M115-194c55 1 70 41 70 98S169 2 115 4C84 4 66-9 55-30l1 105H24l-1-265h31l2 30c10-21 28-34 59-34zm-8 174c40 0 45-34 45-75s-6-73-45-74c-42 0-51 32-51 76 0 43 10 73 51 73" id="aJ"/><g id="G"><use transform="matrix(0.06172839506172839,0,0,0.06172839506172839,0,0)" xlink:href="#ap"/><use transform="matrix(0.06172839506172839,0,0,0.06172839506172839,12.345679012345679,0)" xlink:href="#aJ"/><use transform="matrix(0.06172839506172839,0,0,0.06172839506172839,24.691358024691358,0)" xlink:href="#aJ"/><use transform="matrix(0.06172839506172839,0,0,0.06172839506172839,37.03703703703704,0)" xlink:href="#ap"/><use transform="matrix(0.06172839506172839,0,0,0.06172839506172839,49.382716049382715,0)" xlink:href="#as"/><use transform="matrix(0.06172839506172839,0,0,0.06172839506172839,60.49382716049382,0)" xlink:href="#an"/><use transform="matrix(0.06172839506172839,0,0,0.06172839506172839,65.37037037037037,0)" xlink:href="#ae"/><use transform="matrix(0.06172839506172839,0,0,0.06172839506172839,71.5432098765432,0)" xlink:href="#ak"/></g><g id="H"><use transform="matrix(0.06172839506172839,0,0,0.06172839506172839,0,0)" xlink:href="#ax"/><use transform="matrix(0.06172839506172839,0,0,0.06172839506172839,15.987654320987653,0)" xlink:href="#ak"/><use transform="matrix(0.06172839506172839,0,0,0.06172839506172839,28.333333333333332,0)" xlink:href="#ay"/><use transform="matrix(0.06172839506172839,0,0,0.06172839506172839,39.44444444444444,0)" xlink:href="#ak"/><use transform="matrix(0.06172839506172839,0,0,0.06172839506172839,51.79012345679012,0)" xlink:href="#ag"/><use transform="matrix(0.06172839506172839,0,0,0.06172839506172839,59.1358024691358,0)" xlink:href="#as"/><use transform="matrix(0.06172839506172839,0,0,0.06172839506172839,70.24691358024691,0)" xlink:href="#ak"/></g><g id="I"><use transform="matrix(0.06172839506172839,0,0,0.06172839506172839,0,0)" xlink:href="#ai"/><use transform="matrix(0.06172839506172839,0,0,0.06172839506172839,12.345679012345679,0)" xlink:href="#an"/><use transform="matrix(0.06172839506172839,0,0,0.06172839506172839,17.22222222222222,0)" xlink:href="#ag"/><use transform="matrix(0.06172839506172839,0,0,0.06172839506172839,24.5679012345679,0)" xlink:href="#ak"/><use transform="matrix(0.06172839506172839,0,0,0.06172839506172839,36.913580246913575,0)" xlink:href="#aF"/><use transform="matrix(0.06172839506172839,0,0,0.06172839506172839,48.02469135802468,0)" xlink:href="#ae"/><use transform="matrix(0.06172839506172839,0,0,0.06172839506172839,54.197530864197525,0)" xlink:href="#an"/><use transform="matrix(0.06172839506172839,0,0,0.06172839506172839,59.07407407407407,0)" xlink:href="#ap"/><use transform="matrix(0.06172839506172839,0,0,0.06172839506172839,71.41975308641975,0)" xlink:href="#au"/></g><g id="J"><use transform="matrix(0.06172839506172839,0,0,0.06172839506172839,0,0)" xlink:href="#af"/><use transform="matrix(0.06172839506172839,0,0,0.06172839506172839,12.345679012345679,0)" xlink:href="#au"/><use transform="matrix(0.06172839506172839,0,0,0.06172839506172839,24.691358024691358,0)" xlink:href="#ai"/></g><g id="K"><use transform="matrix(0.06172839506172839,0,0,0.06172839506172839,0,0)" xlink:href="#aA"/><use transform="matrix(0.06172839506172839,0,0,0.06172839506172839,18.456790123456788,0)" xlink:href="#ap"/><use transform="matrix(0.06172839506172839,0,0,0.06172839506172839,30.80246913580247,0)" xlink:href="#ay"/><use transform="matrix(0.06172839506172839,0,0,0.06172839506172839,41.91358024691358,0)" xlink:href="#ak"/></g><g id="L"><use transform="matrix(0.06172839506172839,0,0,0.06172839506172839,0,0)" xlink:href="#ad"/><use transform="matrix(0.06172839506172839,0,0,0.06172839506172839,14.814814814814813,0)" xlink:href="#ae"/><use transform="matrix(0.06172839506172839,0,0,0.06172839506172839,20.98765432098765,0)" xlink:href="#af"/><use transform="matrix(0.06172839506172839,0,0,0.06172839506172839,33.33333333333333,0)" xlink:href="#av"/></g><g id="M"><use transform="matrix(0.06172839506172839,0,0,0.06172839506172839,0,0)" xlink:href="#af"/><use transform="matrix(0.06172839506172839,0,0,0.06172839506172839,12.345679012345679,0)" xlink:href="#ae"/></g><g id="N"><use transform="matrix(0.06172839506172839,0,0,0.06172839506172839,0,0)" xlink:href="#aF"/><use transform="matrix(0.06172839506172839,0,0,0.06172839506172839,11.11111111111111,0)" xlink:href="#ar"/><use transform="matrix(0.06172839506172839,0,0,0.06172839506172839,23.45679012345679,0)" xlink:href="#ag"/><use transform="matrix(0.06172839506172839,0,0,0.06172839506172839,30.80246913580247,0)" xlink:href="#ag"/><use transform="matrix(0.06172839506172839,0,0,0.06172839506172839,38.148148148148145,0)" xlink:href="#ak"/><use transform="matrix(0.06172839506172839,0,0,0.06172839506172839,50.49382716049382,0)" xlink:href="#au"/><use transform="matrix(0.06172839506172839,0,0,0.06172839506172839,62.8395061728395,0)" xlink:href="#ae"/></g><path d="M197 0v-115H63V0H30v-248h33v105h134v-105h34V0h-34" id="aK"/><g id="O"><use transform="matrix(0.06172839506172839,0,0,0.06172839506172839,0,0)" xlink:href="#aK"/><use transform="matrix(0.06172839506172839,0,0,0.06172839506172839,15.987654320987653,0)" xlink:href="#af"/><use transform="matrix(0.06172839506172839,0,0,0.06172839506172839,28.333333333333332,0)" xlink:href="#as"/></g><g id="P"><use transform="matrix(0.06172839506172839,0,0,0.06172839506172839,0,0)" xlink:href="#ak"/><use transform="matrix(0.06172839506172839,0,0,0.06172839506172839,12.345679012345679,0)" xlink:href="#aj"/><use transform="matrix(0.06172839506172839,0,0,0.06172839506172839,17.22222222222222,0)" xlink:href="#ak"/><use transform="matrix(0.06172839506172839,0,0,0.06172839506172839,29.5679012345679,0)" xlink:href="#ay"/><use transform="matrix(0.06172839506172839,0,0,0.06172839506172839,40.67901234567901,0)" xlink:href="#af"/><use transform="matrix(0.06172839506172839,0,0,0.06172839506172839,53.02469135802469,0)" xlink:href="#ae"/><use transform="matrix(0.06172839506172839,0,0,0.06172839506172839,59.19753086419753,0)" xlink:href="#ap"/><use transform="matrix(0.06172839506172839,0,0,0.06172839506172839,71.54320987654322,0)" xlink:href="#ag"/></g><g id="Q"><use transform="matrix(0.06172839506172839,0,0,0.06172839506172839,0,0)" xlink:href="#ag"/><use transform="matrix(0.06172839506172839,0,0,0.06172839506172839,7.345679012345679,0)" xlink:href="#ak"/><use transform="matrix(0.06172839506172839,0,0,0.06172839506172839,19.691358024691358,0)" xlink:href="#af"/><use transform="matrix(0.06172839506172839,0,0,0.06172839506172839,32.03703703703704,0)" xlink:href="#aF"/><use transform="matrix(0.06172839506172839,0,0,0.06172839506172839,43.14814814814815,0)" xlink:href="#aE"/><use transform="matrix(0.06172839506172839,0,0,0.06172839506172839,55.49382716049383,0)" xlink:href="#ak"/><use transform="matrix(0.06172839506172839,0,0,0.06172839506172839,67.8395061728395,0)" xlink:href="#ai"/></g><g id="R"><use transform="matrix(0.06172839506172839,0,0,0.06172839506172839,0,0)" xlink:href="#ag"/><use transform="matrix(0.06172839506172839,0,0,0.06172839506172839,7.345679012345679,0)" xlink:href="#ak"/><use transform="matrix(0.06172839506172839,0,0,0.06172839506172839,19.691358024691358,0)" xlink:href="#aq"/><use transform="matrix(0.06172839506172839,0,0,0.06172839506172839,32.03703703703704,0)" xlink:href="#ar"/><use transform="matrix(0.06172839506172839,0,0,0.06172839506172839,44.382716049382715,0)" xlink:href="#ak"/><use transform="matrix(0.06172839506172839,0,0,0.06172839506172839,56.72839506172839,0)" xlink:href="#as"/><use transform="matrix(0.06172839506172839,0,0,0.06172839506172839,67.8395061728395,0)" xlink:href="#ae"/><use transform="matrix(0.06172839506172839,0,0,0.06172839506172839,74.01234567901234,0)" xlink:href="#ak"/><use transform="matrix(0.06172839506172839,0,0,0.06172839506172839,86.35802469135803,0)" xlink:href="#ai"/></g><g id="S"><use transform="matrix(0.06172839506172839,0,0,0.06172839506172839,0,0)" xlink:href="#ao"/><use transform="matrix(0.06172839506172839,0,0,0.06172839506172839,6.172839506172839,0)" xlink:href="#aj"/><use transform="matrix(0.06172839506172839,0,0,0.06172839506172839,11.049382716049383,0)" xlink:href="#ap"/><use transform="matrix(0.06172839506172839,0,0,0.06172839506172839,23.395061728395063,0)" xlink:href="#ap"/><use transform="matrix(0.06172839506172839,0,0,0.06172839506172839,35.74074074074074,0)" xlink:href="#ag"/><use transform="matrix(0.06172839506172839,0,0,0.06172839506172839,43.08641975308642,0)" xlink:href="#aw"/></g><path d="M140-251c81 0 123 46 123 126C263-46 219 4 140 4 59 4 17-45 17-125s42-126 123-126zm0 227c63 0 89-41 89-101s-29-99-89-99c-61 0-89 39-89 99S79-25 140-24" id="aL"/><g id="T"><use transform="matrix(0.06172839506172839,0,0,0.06172839506172839,0,0)" xlink:href="#aL"/><use transform="matrix(0.06172839506172839,0,0,0.06172839506172839,17.28395061728395,0)" xlink:href="#aJ"/><use transform="matrix(0.06172839506172839,0,0,0.06172839506172839,29.629629629629626,0)" xlink:href="#ak"/><use transform="matrix(0.06172839506172839,0,0,0.06172839506172839,41.9753086419753,0)" xlink:href="#au"/></g><g id="U"><use transform="matrix(0.06172839506172839,0,0,0.06172839506172839,0,0)" xlink:href="#ai"/><use transform="matrix(0.06172839506172839,0,0,0.06172839506172839,12.345679012345679,0)" xlink:href="#ap"/><use transform="matrix(0.06172839506172839,0,0,0.06172839506172839,24.691358024691358,0)" xlink:href="#ap"/><use transform="matrix(0.06172839506172839,0,0,0.06172839506172839,37.03703703703704,0)" xlink:href="#ag"/></g><g id="V"><use transform="matrix(0.06172839506172839,0,0,0.06172839506172839,0,0)" xlink:href="#ao"/><use transform="matrix(0.06172839506172839,0,0,0.06172839506172839,6.172839506172839,0)" xlink:href="#ap"/><use transform="matrix(0.06172839506172839,0,0,0.06172839506172839,18.51851851851852,0)" xlink:href="#ag"/></g><path d="M101-251c82-7 93 87 43 132L82-64C71-53 59-42 53-27h129V0H18c2-99 128-94 128-182 0-28-16-43-45-43s-46 15-49 41l-32-3c6-41 34-60 81-64" id="aM"/><use transform="matrix(0.06172839506172839,0,0,0.06172839506172839,0,0)" xlink:href="#aM" id="W"/><g id="X"><use transform="matrix(0.06172839506172839,0,0,0.06172839506172839,0,0)" xlink:href="#as"/><use transform="matrix(0.06172839506172839,0,0,0.06172839506172839,11.11111111111111,0)" xlink:href="#ak"/><use transform="matrix(0.06172839506172839,0,0,0.06172839506172839,23.45679012345679,0)" xlink:href="#aF"/><use transform="matrix(0.06172839506172839,0,0,0.06172839506172839,34.5679012345679,0)" xlink:href="#ap"/><use transform="matrix(0.06172839506172839,0,0,0.06172839506172839,46.913580246913575,0)" xlink:href="#au"/><use transform="matrix(0.06172839506172839,0,0,0.06172839506172839,59.25925925925925,0)" xlink:href="#ai"/><use transform="matrix(0.06172839506172839,0,0,0.06172839506172839,71.60493827160494,0)" xlink:href="#as"/></g><g id="Y"><use transform="matrix(0.06172839506172839,0,0,0.06172839506172839,0,0)" xlink:href="#aH"/><use transform="matrix(0.06172839506172839,0,0,0.06172839506172839,15.987654320987653,0)" xlink:href="#aj"/><use transform="matrix(0.06172839506172839,0,0,0.06172839506172839,20.864197530864196,0)" xlink:href="#ap"/><use transform="matrix(0.06172839506172839,0,0,0.06172839506172839,33.20987654320987,0)" xlink:href="#as"/><use transform="matrix(0.06172839506172839,0,0,0.06172839506172839,44.32098765432099,0)" xlink:href="#ak"/></g><g id="Z"><use transform="matrix(0.06172839506172839,0,0,0.06172839506172839,0,0)" xlink:href="#af"/><use transform="matrix(0.06172839506172839,0,0,0.06172839506172839,12.345679012345679,0)" xlink:href="#ao"/><use transform="matrix(0.06172839506172839,0,0,0.06172839506172839,18.51851851851852,0)" xlink:href="#ae"/><use transform="matrix(0.06172839506172839,0,0,0.06172839506172839,24.691358024691358,0)" xlink:href="#ak"/><use transform="matrix(0.06172839506172839,0,0,0.06172839506172839,37.03703703703704,0)" xlink:href="#ag"/></g><path d="M30 0v-248h187v28H63v79h144v27H63v87h162V0H30" id="aN"/><g id="aa"><use transform="matrix(0.06172839506172839,0,0,0.06172839506172839,0,0)" xlink:href="#aN"/><use transform="matrix(0.06172839506172839,0,0,0.06172839506172839,14.814814814814813,0)" xlink:href="#au"/><use transform="matrix(0.06172839506172839,0,0,0.06172839506172839,27.160493827160494,0)" xlink:href="#ai"/></g><path fill="#3a414a" d="M146-102V0H94v-102L6-248h54l60 105 60-105h54" id="aO"/><path fill="#3a414a" d="M185-48c-13 30-37 53-82 52C43 2 14-33 14-96s30-98 90-98c62 0 83 45 84 108H66c0 31 8 55 39 56 18 0 30-7 34-22zm-45-69c5-46-57-63-70-21-2 6-4 13-4 21h74" id="aP"/><path fill="#3a414a" d="M137-138c1-29-70-34-71-4 15 46 118 7 119 86 1 83-164 76-172 9l43-7c4 19 20 25 44 25 33 8 57-30 24-41C81-84 22-81 20-136c-2-80 154-74 161-7" id="aQ"/><g id="ab"><use transform="matrix(0.04938271604938272,0,0,0.04938271604938272,0,0)" xlink:href="#aO"/><use transform="matrix(0.04938271604938272,0,0,0.04938271604938272,10.864197530864198,0)" xlink:href="#aP"/><use transform="matrix(0.04938271604938272,0,0,0.04938271604938272,20.74074074074074,0)" xlink:href="#aQ"/></g><path fill="#3a414a" d="M175 0L67-191c6 58 2 128 3 191H24v-248h59L193-55c-6-58-2-129-3-193h46V0h-61" id="aR"/><path fill="#3a414a" d="M110-194c64 0 96 36 96 99 0 64-35 99-97 99-61 0-95-36-95-99 0-62 34-99 96-99zm-1 164c35 0 45-28 45-65 0-40-10-65-43-65-34 0-45 26-45 65 0 36 10 65 43 65" id="aS"/><g id="ac"><use transform="matrix(0.04938271604938272,0,0,0.04938271604938272,0,0)" xlink:href="#aR"/><use transform="matrix(0.04938271604938272,0,0,0.04938271604938272,12.790123456790125,0)" xlink:href="#aS"/></g></defs></g></svg>